# Puzzle küp 55x55x55 mm, birim: mm, Y yukarı
mtllib parca.mtl
vn 1 0 0
vn -1 0 0
vn 0 1 0
vn 0 -1 0
vn 0 0 1
vn 0 0 -1
usemtl siyah
v -9.5333 -27.1333 -27.1333
v -9.5333 -9.5333 -27.1333
v -9.5333 -9.5333 -9.5333
v -9.5333 -27.1333 -9.5333
f 1//1 2//1 3//1 4//1
v -27.1333 -27.1333 -9.5333
v -27.1333 -9.5333 -9.5333
v -27.1333 -9.5333 -27.1333
v -27.1333 -27.1333 -27.1333
f 5//2 6//2 7//2 8//2
v -27.1333 -9.5333 -27.1333
v -27.1333 -9.5333 -9.5333
v -9.5333 -9.5333 -9.5333
v -9.5333 -9.5333 -27.1333
f 9//3 10//3 11//3 12//3
v -27.1333 -27.1333 -9.5333
v -27.1333 -27.1333 -27.1333
v -9.5333 -27.1333 -27.1333
v -9.5333 -27.1333 -9.5333
f 13//4 14//4 15//4 16//4
v -27.1333 -27.1333 -9.5333
v -9.5333 -27.1333 -9.5333
v -9.5333 -9.5333 -9.5333
v -27.1333 -9.5333 -9.5333
f 17//5 18//5 19//5 20//5
v -9.5333 -27.1333 -27.1333
v -27.1333 -27.1333 -27.1333
v -27.1333 -9.5333 -27.1333
v -9.5333 -9.5333 -27.1333
f 21//6 22//6 23//6 24//6
usemtl sari
v -10.5333 -27.5000 -26.1333
v -10.5333 -27.1333 -26.1333
v -10.5333 -27.1333 -10.5333
v -10.5333 -27.5000 -10.5333
f 25//1 26//1 27//1 28//1
v -26.1333 -27.5000 -10.5333
v -26.1333 -27.1333 -10.5333
v -26.1333 -27.1333 -26.1333
v -26.1333 -27.5000 -26.1333
f 29//2 30//2 31//2 32//2
v -26.1333 -27.1333 -26.1333
v -26.1333 -27.1333 -10.5333
v -10.5333 -27.1333 -10.5333
v -10.5333 -27.1333 -26.1333
f 33//3 34//3 35//3 36//3
v -26.1333 -27.5000 -10.5333
v -26.1333 -27.5000 -26.1333
v -10.5333 -27.5000 -26.1333
v -10.5333 -27.5000 -10.5333
f 37//4 38//4 39//4 40//4
v -26.1333 -27.5000 -10.5333
v -10.5333 -27.5000 -10.5333
v -10.5333 -27.1333 -10.5333
v -26.1333 -27.1333 -10.5333
f 41//5 42//5 43//5 44//5
v -10.5333 -27.5000 -26.1333
v -26.1333 -27.5000 -26.1333
v -26.1333 -27.1333 -26.1333
v -10.5333 -27.1333 -26.1333
f 45//6 46//6 47//6 48//6
usemtl mavi
v -10.5333 -26.1333 -27.5000
v -10.5333 -10.5333 -27.5000
v -10.5333 -10.5333 -27.1333
v -10.5333 -26.1333 -27.1333
f 49//1 50//1 51//1 52//1
v -26.1333 -26.1333 -27.1333
v -26.1333 -10.5333 -27.1333
v -26.1333 -10.5333 -27.5000
v -26.1333 -26.1333 -27.5000
f 53//2 54//2 55//2 56//2
v -26.1333 -10.5333 -27.5000
v -26.1333 -10.5333 -27.1333
v -10.5333 -10.5333 -27.1333
v -10.5333 -10.5333 -27.5000
f 57//3 58//3 59//3 60//3
v -26.1333 -26.1333 -27.1333
v -26.1333 -26.1333 -27.5000
v -10.5333 -26.1333 -27.5000
v -10.5333 -26.1333 -27.1333
f 61//4 62//4 63//4 64//4
v -26.1333 -26.1333 -27.1333
v -10.5333 -26.1333 -27.1333
v -10.5333 -10.5333 -27.1333
v -26.1333 -10.5333 -27.1333
f 65//5 66//5 67//5 68//5
v -10.5333 -26.1333 -27.5000
v -26.1333 -26.1333 -27.5000
v -26.1333 -10.5333 -27.5000
v -10.5333 -10.5333 -27.5000
f 69//6 70//6 71//6 72//6
usemtl turuncu
v -27.1333 -26.1333 -26.1333
v -27.1333 -10.5333 -26.1333
v -27.1333 -10.5333 -10.5333
v -27.1333 -26.1333 -10.5333
f 73//1 74//1 75//1 76//1
v -27.5000 -26.1333 -10.5333
v -27.5000 -10.5333 -10.5333
v -27.5000 -10.5333 -26.1333
v -27.5000 -26.1333 -26.1333
f 77//2 78//2 79//2 80//2
v -27.5000 -10.5333 -26.1333
v -27.5000 -10.5333 -10.5333
v -27.1333 -10.5333 -10.5333
v -27.1333 -10.5333 -26.1333
f 81//3 82//3 83//3 84//3
v -27.5000 -26.1333 -10.5333
v -27.5000 -26.1333 -26.1333
v -27.1333 -26.1333 -26.1333
v -27.1333 -26.1333 -10.5333
f 85//4 86//4 87//4 88//4
v -27.5000 -26.1333 -10.5333
v -27.1333 -26.1333 -10.5333
v -27.1333 -10.5333 -10.5333
v -27.5000 -10.5333 -10.5333
f 89//5 90//5 91//5 92//5
v -27.1333 -26.1333 -26.1333
v -27.5000 -26.1333 -26.1333
v -27.5000 -10.5333 -26.1333
v -27.1333 -10.5333 -26.1333
f 93//6 94//6 95//6 96//6
usemtl siyah
v -9.5333 -27.1333 -8.8000
v -9.5333 -9.5333 -8.8000
v -9.5333 -9.5333 8.8000
v -9.5333 -27.1333 8.8000
f 97//1 98//1 99//1 100//1
v -27.1333 -27.1333 8.8000
v -27.1333 -9.5333 8.8000
v -27.1333 -9.5333 -8.8000
v -27.1333 -27.1333 -8.8000
f 101//2 102//2 103//2 104//2
v -27.1333 -9.5333 -8.8000
v -27.1333 -9.5333 8.8000
v -9.5333 -9.5333 8.8000
v -9.5333 -9.5333 -8.8000
f 105//3 106//3 107//3 108//3
v -27.1333 -27.1333 8.8000
v -27.1333 -27.1333 -8.8000
v -9.5333 -27.1333 -8.8000
v -9.5333 -27.1333 8.8000
f 109//4 110//4 111//4 112//4
v -27.1333 -27.1333 8.8000
v -9.5333 -27.1333 8.8000
v -9.5333 -9.5333 8.8000
v -27.1333 -9.5333 8.8000
f 113//5 114//5 115//5 116//5
v -9.5333 -27.1333 -8.8000
v -27.1333 -27.1333 -8.8000
v -27.1333 -9.5333 -8.8000
v -9.5333 -9.5333 -8.8000
f 117//6 118//6 119//6 120//6
usemtl sari
v -10.5333 -27.5000 -7.8000
v -10.5333 -27.1333 -7.8000
v -10.5333 -27.1333 7.8000
v -10.5333 -27.5000 7.8000
f 121//1 122//1 123//1 124//1
v -26.1333 -27.5000 7.8000
v -26.1333 -27.1333 7.8000
v -26.1333 -27.1333 -7.8000
v -26.1333 -27.5000 -7.8000
f 125//2 126//2 127//2 128//2
v -26.1333 -27.1333 -7.8000
v -26.1333 -27.1333 7.8000
v -10.5333 -27.1333 7.8000
v -10.5333 -27.1333 -7.8000
f 129//3 130//3 131//3 132//3
v -26.1333 -27.5000 7.8000
v -26.1333 -27.5000 -7.8000
v -10.5333 -27.5000 -7.8000
v -10.5333 -27.5000 7.8000
f 133//4 134//4 135//4 136//4
v -26.1333 -27.5000 7.8000
v -10.5333 -27.5000 7.8000
v -10.5333 -27.1333 7.8000
v -26.1333 -27.1333 7.8000
f 137//5 138//5 139//5 140//5
v -10.5333 -27.5000 -7.8000
v -26.1333 -27.5000 -7.8000
v -26.1333 -27.1333 -7.8000
v -10.5333 -27.1333 -7.8000
f 141//6 142//6 143//6 144//6
usemtl turuncu
v -27.1333 -26.1333 -7.8000
v -27.1333 -10.5333 -7.8000
v -27.1333 -10.5333 7.8000
v -27.1333 -26.1333 7.8000
f 145//1 146//1 147//1 148//1
v -27.5000 -26.1333 7.8000
v -27.5000 -10.5333 7.8000
v -27.5000 -10.5333 -7.8000
v -27.5000 -26.1333 -7.8000
f 149//2 150//2 151//2 152//2
v -27.5000 -10.5333 -7.8000
v -27.5000 -10.5333 7.8000
v -27.1333 -10.5333 7.8000
v -27.1333 -10.5333 -7.8000
f 153//3 154//3 155//3 156//3
v -27.5000 -26.1333 7.8000
v -27.5000 -26.1333 -7.8000
v -27.1333 -26.1333 -7.8000
v -27.1333 -26.1333 7.8000
f 157//4 158//4 159//4 160//4
v -27.5000 -26.1333 7.8000
v -27.1333 -26.1333 7.8000
v -27.1333 -10.5333 7.8000
v -27.5000 -10.5333 7.8000
f 161//5 162//5 163//5 164//5
v -27.1333 -26.1333 -7.8000
v -27.5000 -26.1333 -7.8000
v -27.5000 -10.5333 -7.8000
v -27.1333 -10.5333 -7.8000
f 165//6 166//6 167//6 168//6
usemtl siyah
v -9.5333 -27.1333 9.5333
v -9.5333 -9.5333 9.5333
v -9.5333 -9.5333 27.1333
v -9.5333 -27.1333 27.1333
f 169//1 170//1 171//1 172//1
v -27.1333 -27.1333 27.1333
v -27.1333 -9.5333 27.1333
v -27.1333 -9.5333 9.5333
v -27.1333 -27.1333 9.5333
f 173//2 174//2 175//2 176//2
v -27.1333 -9.5333 9.5333
v -27.1333 -9.5333 27.1333
v -9.5333 -9.5333 27.1333
v -9.5333 -9.5333 9.5333
f 177//3 178//3 179//3 180//3
v -27.1333 -27.1333 27.1333
v -27.1333 -27.1333 9.5333
v -9.5333 -27.1333 9.5333
v -9.5333 -27.1333 27.1333
f 181//4 182//4 183//4 184//4
v -27.1333 -27.1333 27.1333
v -9.5333 -27.1333 27.1333
v -9.5333 -9.5333 27.1333
v -27.1333 -9.5333 27.1333
f 185//5 186//5 187//5 188//5
v -9.5333 -27.1333 9.5333
v -27.1333 -27.1333 9.5333
v -27.1333 -9.5333 9.5333
v -9.5333 -9.5333 9.5333
f 189//6 190//6 191//6 192//6
usemtl sari
v -10.5333 -27.5000 10.5333
v -10.5333 -27.1333 10.5333
v -10.5333 -27.1333 26.1333
v -10.5333 -27.5000 26.1333
f 193//1 194//1 195//1 196//1
v -26.1333 -27.5000 26.1333
v -26.1333 -27.1333 26.1333
v -26.1333 -27.1333 10.5333
v -26.1333 -27.5000 10.5333
f 197//2 198//2 199//2 200//2
v -26.1333 -27.1333 10.5333
v -26.1333 -27.1333 26.1333
v -10.5333 -27.1333 26.1333
v -10.5333 -27.1333 10.5333
f 201//3 202//3 203//3 204//3
v -26.1333 -27.5000 26.1333
v -26.1333 -27.5000 10.5333
v -10.5333 -27.5000 10.5333
v -10.5333 -27.5000 26.1333
f 205//4 206//4 207//4 208//4
v -26.1333 -27.5000 26.1333
v -10.5333 -27.5000 26.1333
v -10.5333 -27.1333 26.1333
v -26.1333 -27.1333 26.1333
f 209//5 210//5 211//5 212//5
v -10.5333 -27.5000 10.5333
v -26.1333 -27.5000 10.5333
v -26.1333 -27.1333 10.5333
v -10.5333 -27.1333 10.5333
f 213//6 214//6 215//6 216//6
usemtl yesil
v -10.5333 -26.1333 27.1333
v -10.5333 -10.5333 27.1333
v -10.5333 -10.5333 27.5000
v -10.5333 -26.1333 27.5000
f 217//1 218//1 219//1 220//1
v -26.1333 -26.1333 27.5000
v -26.1333 -10.5333 27.5000
v -26.1333 -10.5333 27.1333
v -26.1333 -26.1333 27.1333
f 221//2 222//2 223//2 224//2
v -26.1333 -10.5333 27.1333
v -26.1333 -10.5333 27.5000
v -10.5333 -10.5333 27.5000
v -10.5333 -10.5333 27.1333
f 225//3 226//3 227//3 228//3
v -26.1333 -26.1333 27.5000
v -26.1333 -26.1333 27.1333
v -10.5333 -26.1333 27.1333
v -10.5333 -26.1333 27.5000
f 229//4 230//4 231//4 232//4
v -26.1333 -26.1333 27.5000
v -10.5333 -26.1333 27.5000
v -10.5333 -10.5333 27.5000
v -26.1333 -10.5333 27.5000
f 233//5 234//5 235//5 236//5
v -10.5333 -26.1333 27.1333
v -26.1333 -26.1333 27.1333
v -26.1333 -10.5333 27.1333
v -10.5333 -10.5333 27.1333
f 237//6 238//6 239//6 240//6
usemtl turuncu
v -27.1333 -26.1333 10.5333
v -27.1333 -10.5333 10.5333
v -27.1333 -10.5333 26.1333
v -27.1333 -26.1333 26.1333
f 241//1 242//1 243//1 244//1
v -27.5000 -26.1333 26.1333
v -27.5000 -10.5333 26.1333
v -27.5000 -10.5333 10.5333
v -27.5000 -26.1333 10.5333
f 245//2 246//2 247//2 248//2
v -27.5000 -10.5333 10.5333
v -27.5000 -10.5333 26.1333
v -27.1333 -10.5333 26.1333
v -27.1333 -10.5333 10.5333
f 249//3 250//3 251//3 252//3
v -27.5000 -26.1333 26.1333
v -27.5000 -26.1333 10.5333
v -27.1333 -26.1333 10.5333
v -27.1333 -26.1333 26.1333
f 253//4 254//4 255//4 256//4
v -27.5000 -26.1333 26.1333
v -27.1333 -26.1333 26.1333
v -27.1333 -10.5333 26.1333
v -27.5000 -10.5333 26.1333
f 257//5 258//5 259//5 260//5
v -27.1333 -26.1333 10.5333
v -27.5000 -26.1333 10.5333
v -27.5000 -10.5333 10.5333
v -27.1333 -10.5333 10.5333
f 261//6 262//6 263//6 264//6
usemtl siyah
v -9.5333 -8.8000 -27.1333
v -9.5333 8.8000 -27.1333
v -9.5333 8.8000 -9.5333
v -9.5333 -8.8000 -9.5333
f 265//1 266//1 267//1 268//1
v -27.1333 -8.8000 -9.5333
v -27.1333 8.8000 -9.5333
v -27.1333 8.8000 -27.1333
v -27.1333 -8.8000 -27.1333
f 269//2 270//2 271//2 272//2
v -27.1333 8.8000 -27.1333
v -27.1333 8.8000 -9.5333
v -9.5333 8.8000 -9.5333
v -9.5333 8.8000 -27.1333
f 273//3 274//3 275//3 276//3
v -27.1333 -8.8000 -9.5333
v -27.1333 -8.8000 -27.1333
v -9.5333 -8.8000 -27.1333
v -9.5333 -8.8000 -9.5333
f 277//4 278//4 279//4 280//4
v -27.1333 -8.8000 -9.5333
v -9.5333 -8.8000 -9.5333
v -9.5333 8.8000 -9.5333
v -27.1333 8.8000 -9.5333
f 281//5 282//5 283//5 284//5
v -9.5333 -8.8000 -27.1333
v -27.1333 -8.8000 -27.1333
v -27.1333 8.8000 -27.1333
v -9.5333 8.8000 -27.1333
f 285//6 286//6 287//6 288//6
usemtl mavi
v -10.5333 -7.8000 -27.5000
v -10.5333 7.8000 -27.5000
v -10.5333 7.8000 -27.1333
v -10.5333 -7.8000 -27.1333
f 289//1 290//1 291//1 292//1
v -26.1333 -7.8000 -27.1333
v -26.1333 7.8000 -27.1333
v -26.1333 7.8000 -27.5000
v -26.1333 -7.8000 -27.5000
f 293//2 294//2 295//2 296//2
v -26.1333 7.8000 -27.5000
v -26.1333 7.8000 -27.1333
v -10.5333 7.8000 -27.1333
v -10.5333 7.8000 -27.5000
f 297//3 298//3 299//3 300//3
v -26.1333 -7.8000 -27.1333
v -26.1333 -7.8000 -27.5000
v -10.5333 -7.8000 -27.5000
v -10.5333 -7.8000 -27.1333
f 301//4 302//4 303//4 304//4
v -26.1333 -7.8000 -27.1333
v -10.5333 -7.8000 -27.1333
v -10.5333 7.8000 -27.1333
v -26.1333 7.8000 -27.1333
f 305//5 306//5 307//5 308//5
v -10.5333 -7.8000 -27.5000
v -26.1333 -7.8000 -27.5000
v -26.1333 7.8000 -27.5000
v -10.5333 7.8000 -27.5000
f 309//6 310//6 311//6 312//6
usemtl turuncu
v -27.1333 -7.8000 -26.1333
v -27.1333 7.8000 -26.1333
v -27.1333 7.8000 -10.5333
v -27.1333 -7.8000 -10.5333
f 313//1 314//1 315//1 316//1
v -27.5000 -7.8000 -10.5333
v -27.5000 7.8000 -10.5333
v -27.5000 7.8000 -26.1333
v -27.5000 -7.8000 -26.1333
f 317//2 318//2 319//2 320//2
v -27.5000 7.8000 -26.1333
v -27.5000 7.8000 -10.5333
v -27.1333 7.8000 -10.5333
v -27.1333 7.8000 -26.1333
f 321//3 322//3 323//3 324//3
v -27.5000 -7.8000 -10.5333
v -27.5000 -7.8000 -26.1333
v -27.1333 -7.8000 -26.1333
v -27.1333 -7.8000 -10.5333
f 325//4 326//4 327//4 328//4
v -27.5000 -7.8000 -10.5333
v -27.1333 -7.8000 -10.5333
v -27.1333 7.8000 -10.5333
v -27.5000 7.8000 -10.5333
f 329//5 330//5 331//5 332//5
v -27.1333 -7.8000 -26.1333
v -27.5000 -7.8000 -26.1333
v -27.5000 7.8000 -26.1333
v -27.1333 7.8000 -26.1333
f 333//6 334//6 335//6 336//6
usemtl siyah
v -9.5333 -8.8000 -8.8000
v -9.5333 8.8000 -8.8000
v -9.5333 8.8000 8.8000
v -9.5333 -8.8000 8.8000
f 337//1 338//1 339//1 340//1
v -27.1333 -8.8000 8.8000
v -27.1333 8.8000 8.8000
v -27.1333 8.8000 -8.8000
v -27.1333 -8.8000 -8.8000
f 341//2 342//2 343//2 344//2
v -27.1333 8.8000 -8.8000
v -27.1333 8.8000 8.8000
v -9.5333 8.8000 8.8000
v -9.5333 8.8000 -8.8000
f 345//3 346//3 347//3 348//3
v -27.1333 -8.8000 8.8000
v -27.1333 -8.8000 -8.8000
v -9.5333 -8.8000 -8.8000
v -9.5333 -8.8000 8.8000
f 349//4 350//4 351//4 352//4
v -27.1333 -8.8000 8.8000
v -9.5333 -8.8000 8.8000
v -9.5333 8.8000 8.8000
v -27.1333 8.8000 8.8000
f 353//5 354//5 355//5 356//5
v -9.5333 -8.8000 -8.8000
v -27.1333 -8.8000 -8.8000
v -27.1333 8.8000 -8.8000
v -9.5333 8.8000 -8.8000
f 357//6 358//6 359//6 360//6
usemtl turuncu
v -27.1333 -7.8000 -7.8000
v -27.1333 7.8000 -7.8000
v -27.1333 7.8000 7.8000
v -27.1333 -7.8000 7.8000
f 361//1 362//1 363//1 364//1
v -27.5000 -7.8000 7.8000
v -27.5000 7.8000 7.8000
v -27.5000 7.8000 -7.8000
v -27.5000 -7.8000 -7.8000
f 365//2 366//2 367//2 368//2
v -27.5000 7.8000 -7.8000
v -27.5000 7.8000 7.8000
v -27.1333 7.8000 7.8000
v -27.1333 7.8000 -7.8000
f 369//3 370//3 371//3 372//3
v -27.5000 -7.8000 7.8000
v -27.5000 -7.8000 -7.8000
v -27.1333 -7.8000 -7.8000
v -27.1333 -7.8000 7.8000
f 373//4 374//4 375//4 376//4
v -27.5000 -7.8000 7.8000
v -27.1333 -7.8000 7.8000
v -27.1333 7.8000 7.8000
v -27.5000 7.8000 7.8000
f 377//5 378//5 379//5 380//5
v -27.1333 -7.8000 -7.8000
v -27.5000 -7.8000 -7.8000
v -27.5000 7.8000 -7.8000
v -27.1333 7.8000 -7.8000
f 381//6 382//6 383//6 384//6
usemtl siyah
v -9.5333 -8.8000 9.5333
v -9.5333 8.8000 9.5333
v -9.5333 8.8000 27.1333
v -9.5333 -8.8000 27.1333
f 385//1 386//1 387//1 388//1
v -27.1333 -8.8000 27.1333
v -27.1333 8.8000 27.1333
v -27.1333 8.8000 9.5333
v -27.1333 -8.8000 9.5333
f 389//2 390//2 391//2 392//2
v -27.1333 8.8000 9.5333
v -27.1333 8.8000 27.1333
v -9.5333 8.8000 27.1333
v -9.5333 8.8000 9.5333
f 393//3 394//3 395//3 396//3
v -27.1333 -8.8000 27.1333
v -27.1333 -8.8000 9.5333
v -9.5333 -8.8000 9.5333
v -9.5333 -8.8000 27.1333
f 397//4 398//4 399//4 400//4
v -27.1333 -8.8000 27.1333
v -9.5333 -8.8000 27.1333
v -9.5333 8.8000 27.1333
v -27.1333 8.8000 27.1333
f 401//5 402//5 403//5 404//5
v -9.5333 -8.8000 9.5333
v -27.1333 -8.8000 9.5333
v -27.1333 8.8000 9.5333
v -9.5333 8.8000 9.5333
f 405//6 406//6 407//6 408//6
usemtl yesil
v -10.5333 -7.8000 27.1333
v -10.5333 7.8000 27.1333
v -10.5333 7.8000 27.5000
v -10.5333 -7.8000 27.5000
f 409//1 410//1 411//1 412//1
v -26.1333 -7.8000 27.5000
v -26.1333 7.8000 27.5000
v -26.1333 7.8000 27.1333
v -26.1333 -7.8000 27.1333
f 413//2 414//2 415//2 416//2
v -26.1333 7.8000 27.1333
v -26.1333 7.8000 27.5000
v -10.5333 7.8000 27.5000
v -10.5333 7.8000 27.1333
f 417//3 418//3 419//3 420//3
v -26.1333 -7.8000 27.5000
v -26.1333 -7.8000 27.1333
v -10.5333 -7.8000 27.1333
v -10.5333 -7.8000 27.5000
f 421//4 422//4 423//4 424//4
v -26.1333 -7.8000 27.5000
v -10.5333 -7.8000 27.5000
v -10.5333 7.8000 27.5000
v -26.1333 7.8000 27.5000
f 425//5 426//5 427//5 428//5
v -10.5333 -7.8000 27.1333
v -26.1333 -7.8000 27.1333
v -26.1333 7.8000 27.1333
v -10.5333 7.8000 27.1333
f 429//6 430//6 431//6 432//6
usemtl turuncu
v -27.1333 -7.8000 10.5333
v -27.1333 7.8000 10.5333
v -27.1333 7.8000 26.1333
v -27.1333 -7.8000 26.1333
f 433//1 434//1 435//1 436//1
v -27.5000 -7.8000 26.1333
v -27.5000 7.8000 26.1333
v -27.5000 7.8000 10.5333
v -27.5000 -7.8000 10.5333
f 437//2 438//2 439//2 440//2
v -27.5000 7.8000 10.5333
v -27.5000 7.8000 26.1333
v -27.1333 7.8000 26.1333
v -27.1333 7.8000 10.5333
f 441//3 442//3 443//3 444//3
v -27.5000 -7.8000 26.1333
v -27.5000 -7.8000 10.5333
v -27.1333 -7.8000 10.5333
v -27.1333 -7.8000 26.1333
f 445//4 446//4 447//4 448//4
v -27.5000 -7.8000 26.1333
v -27.1333 -7.8000 26.1333
v -27.1333 7.8000 26.1333
v -27.5000 7.8000 26.1333
f 449//5 450//5 451//5 452//5
v -27.1333 -7.8000 10.5333
v -27.5000 -7.8000 10.5333
v -27.5000 7.8000 10.5333
v -27.1333 7.8000 10.5333
f 453//6 454//6 455//6 456//6
usemtl siyah
v -9.5333 9.5333 -27.1333
v -9.5333 27.1333 -27.1333
v -9.5333 27.1333 -9.5333
v -9.5333 9.5333 -9.5333
f 457//1 458//1 459//1 460//1
v -27.1333 9.5333 -9.5333
v -27.1333 27.1333 -9.5333
v -27.1333 27.1333 -27.1333
v -27.1333 9.5333 -27.1333
f 461//2 462//2 463//2 464//2
v -27.1333 27.1333 -27.1333
v -27.1333 27.1333 -9.5333
v -9.5333 27.1333 -9.5333
v -9.5333 27.1333 -27.1333
f 465//3 466//3 467//3 468//3
v -27.1333 9.5333 -9.5333
v -27.1333 9.5333 -27.1333
v -9.5333 9.5333 -27.1333
v -9.5333 9.5333 -9.5333
f 469//4 470//4 471//4 472//4
v -27.1333 9.5333 -9.5333
v -9.5333 9.5333 -9.5333
v -9.5333 27.1333 -9.5333
v -27.1333 27.1333 -9.5333
f 473//5 474//5 475//5 476//5
v -9.5333 9.5333 -27.1333
v -27.1333 9.5333 -27.1333
v -27.1333 27.1333 -27.1333
v -9.5333 27.1333 -27.1333
f 477//6 478//6 479//6 480//6
usemtl beyaz
v -10.5333 27.1333 -26.1333
v -10.5333 27.5000 -26.1333
v -10.5333 27.5000 -10.5333
v -10.5333 27.1333 -10.5333
f 481//1 482//1 483//1 484//1
v -26.1333 27.1333 -10.5333
v -26.1333 27.5000 -10.5333
v -26.1333 27.5000 -26.1333
v -26.1333 27.1333 -26.1333
f 485//2 486//2 487//2 488//2
v -26.1333 27.5000 -26.1333
v -26.1333 27.5000 -10.5333
v -10.5333 27.5000 -10.5333
v -10.5333 27.5000 -26.1333
f 489//3 490//3 491//3 492//3
v -26.1333 27.1333 -10.5333
v -26.1333 27.1333 -26.1333
v -10.5333 27.1333 -26.1333
v -10.5333 27.1333 -10.5333
f 493//4 494//4 495//4 496//4
v -26.1333 27.1333 -10.5333
v -10.5333 27.1333 -10.5333
v -10.5333 27.5000 -10.5333
v -26.1333 27.5000 -10.5333
f 497//5 498//5 499//5 500//5
v -10.5333 27.1333 -26.1333
v -26.1333 27.1333 -26.1333
v -26.1333 27.5000 -26.1333
v -10.5333 27.5000 -26.1333
f 501//6 502//6 503//6 504//6
usemtl mavi
v -10.5333 10.5333 -27.5000
v -10.5333 26.1333 -27.5000
v -10.5333 26.1333 -27.1333
v -10.5333 10.5333 -27.1333
f 505//1 506//1 507//1 508//1
v -26.1333 10.5333 -27.1333
v -26.1333 26.1333 -27.1333
v -26.1333 26.1333 -27.5000
v -26.1333 10.5333 -27.5000
f 509//2 510//2 511//2 512//2
v -26.1333 26.1333 -27.5000
v -26.1333 26.1333 -27.1333
v -10.5333 26.1333 -27.1333
v -10.5333 26.1333 -27.5000
f 513//3 514//3 515//3 516//3
v -26.1333 10.5333 -27.1333
v -26.1333 10.5333 -27.5000
v -10.5333 10.5333 -27.5000
v -10.5333 10.5333 -27.1333
f 517//4 518//4 519//4 520//4
v -26.1333 10.5333 -27.1333
v -10.5333 10.5333 -27.1333
v -10.5333 26.1333 -27.1333
v -26.1333 26.1333 -27.1333
f 521//5 522//5 523//5 524//5
v -10.5333 10.5333 -27.5000
v -26.1333 10.5333 -27.5000
v -26.1333 26.1333 -27.5000
v -10.5333 26.1333 -27.5000
f 525//6 526//6 527//6 528//6
usemtl turuncu
v -27.1333 10.5333 -26.1333
v -27.1333 26.1333 -26.1333
v -27.1333 26.1333 -10.5333
v -27.1333 10.5333 -10.5333
f 529//1 530//1 531//1 532//1
v -27.5000 10.5333 -10.5333
v -27.5000 26.1333 -10.5333
v -27.5000 26.1333 -26.1333
v -27.5000 10.5333 -26.1333
f 533//2 534//2 535//2 536//2
v -27.5000 26.1333 -26.1333
v -27.5000 26.1333 -10.5333
v -27.1333 26.1333 -10.5333
v -27.1333 26.1333 -26.1333
f 537//3 538//3 539//3 540//3
v -27.5000 10.5333 -10.5333
v -27.5000 10.5333 -26.1333
v -27.1333 10.5333 -26.1333
v -27.1333 10.5333 -10.5333
f 541//4 542//4 543//4 544//4
v -27.5000 10.5333 -10.5333
v -27.1333 10.5333 -10.5333
v -27.1333 26.1333 -10.5333
v -27.5000 26.1333 -10.5333
f 545//5 546//5 547//5 548//5
v -27.1333 10.5333 -26.1333
v -27.5000 10.5333 -26.1333
v -27.5000 26.1333 -26.1333
v -27.1333 26.1333 -26.1333
f 549//6 550//6 551//6 552//6
usemtl siyah
v -9.5333 9.5333 -8.8000
v -9.5333 27.1333 -8.8000
v -9.5333 27.1333 8.8000
v -9.5333 9.5333 8.8000
f 553//1 554//1 555//1 556//1
v -27.1333 9.5333 8.8000
v -27.1333 27.1333 8.8000
v -27.1333 27.1333 -8.8000
v -27.1333 9.5333 -8.8000
f 557//2 558//2 559//2 560//2
v -27.1333 27.1333 -8.8000
v -27.1333 27.1333 8.8000
v -9.5333 27.1333 8.8000
v -9.5333 27.1333 -8.8000
f 561//3 562//3 563//3 564//3
v -27.1333 9.5333 8.8000
v -27.1333 9.5333 -8.8000
v -9.5333 9.5333 -8.8000
v -9.5333 9.5333 8.8000
f 565//4 566//4 567//4 568//4
v -27.1333 9.5333 8.8000
v -9.5333 9.5333 8.8000
v -9.5333 27.1333 8.8000
v -27.1333 27.1333 8.8000
f 569//5 570//5 571//5 572//5
v -9.5333 9.5333 -8.8000
v -27.1333 9.5333 -8.8000
v -27.1333 27.1333 -8.8000
v -9.5333 27.1333 -8.8000
f 573//6 574//6 575//6 576//6
usemtl beyaz
v -10.5333 27.1333 -7.8000
v -10.5333 27.5000 -7.8000
v -10.5333 27.5000 7.8000
v -10.5333 27.1333 7.8000
f 577//1 578//1 579//1 580//1
v -26.1333 27.1333 7.8000
v -26.1333 27.5000 7.8000
v -26.1333 27.5000 -7.8000
v -26.1333 27.1333 -7.8000
f 581//2 582//2 583//2 584//2
v -26.1333 27.5000 -7.8000
v -26.1333 27.5000 7.8000
v -10.5333 27.5000 7.8000
v -10.5333 27.5000 -7.8000
f 585//3 586//3 587//3 588//3
v -26.1333 27.1333 7.8000
v -26.1333 27.1333 -7.8000
v -10.5333 27.1333 -7.8000
v -10.5333 27.1333 7.8000
f 589//4 590//4 591//4 592//4
v -26.1333 27.1333 7.8000
v -10.5333 27.1333 7.8000
v -10.5333 27.5000 7.8000
v -26.1333 27.5000 7.8000
f 593//5 594//5 595//5 596//5
v -10.5333 27.1333 -7.8000
v -26.1333 27.1333 -7.8000
v -26.1333 27.5000 -7.8000
v -10.5333 27.5000 -7.8000
f 597//6 598//6 599//6 600//6
usemtl turuncu
v -27.1333 10.5333 -7.8000
v -27.1333 26.1333 -7.8000
v -27.1333 26.1333 7.8000
v -27.1333 10.5333 7.8000
f 601//1 602//1 603//1 604//1
v -27.5000 10.5333 7.8000
v -27.5000 26.1333 7.8000
v -27.5000 26.1333 -7.8000
v -27.5000 10.5333 -7.8000
f 605//2 606//2 607//2 608//2
v -27.5000 26.1333 -7.8000
v -27.5000 26.1333 7.8000
v -27.1333 26.1333 7.8000
v -27.1333 26.1333 -7.8000
f 609//3 610//3 611//3 612//3
v -27.5000 10.5333 7.8000
v -27.5000 10.5333 -7.8000
v -27.1333 10.5333 -7.8000
v -27.1333 10.5333 7.8000
f 613//4 614//4 615//4 616//4
v -27.5000 10.5333 7.8000
v -27.1333 10.5333 7.8000
v -27.1333 26.1333 7.8000
v -27.5000 26.1333 7.8000
f 617//5 618//5 619//5 620//5
v -27.1333 10.5333 -7.8000
v -27.5000 10.5333 -7.8000
v -27.5000 26.1333 -7.8000
v -27.1333 26.1333 -7.8000
f 621//6 622//6 623//6 624//6
usemtl siyah
v -9.5333 9.5333 9.5333
v -9.5333 27.1333 9.5333
v -9.5333 27.1333 27.1333
v -9.5333 9.5333 27.1333
f 625//1 626//1 627//1 628//1
v -27.1333 9.5333 27.1333
v -27.1333 27.1333 27.1333
v -27.1333 27.1333 9.5333
v -27.1333 9.5333 9.5333
f 629//2 630//2 631//2 632//2
v -27.1333 27.1333 9.5333
v -27.1333 27.1333 27.1333
v -9.5333 27.1333 27.1333
v -9.5333 27.1333 9.5333
f 633//3 634//3 635//3 636//3
v -27.1333 9.5333 27.1333
v -27.1333 9.5333 9.5333
v -9.5333 9.5333 9.5333
v -9.5333 9.5333 27.1333
f 637//4 638//4 639//4 640//4
v -27.1333 9.5333 27.1333
v -9.5333 9.5333 27.1333
v -9.5333 27.1333 27.1333
v -27.1333 27.1333 27.1333
f 641//5 642//5 643//5 644//5
v -9.5333 9.5333 9.5333
v -27.1333 9.5333 9.5333
v -27.1333 27.1333 9.5333
v -9.5333 27.1333 9.5333
f 645//6 646//6 647//6 648//6
usemtl beyaz
v -10.5333 27.1333 10.5333
v -10.5333 27.5000 10.5333
v -10.5333 27.5000 26.1333
v -10.5333 27.1333 26.1333
f 649//1 650//1 651//1 652//1
v -26.1333 27.1333 26.1333
v -26.1333 27.5000 26.1333
v -26.1333 27.5000 10.5333
v -26.1333 27.1333 10.5333
f 653//2 654//2 655//2 656//2
v -26.1333 27.5000 10.5333
v -26.1333 27.5000 26.1333
v -10.5333 27.5000 26.1333
v -10.5333 27.5000 10.5333
f 657//3 658//3 659//3 660//3
v -26.1333 27.1333 26.1333
v -26.1333 27.1333 10.5333
v -10.5333 27.1333 10.5333
v -10.5333 27.1333 26.1333
f 661//4 662//4 663//4 664//4
v -26.1333 27.1333 26.1333
v -10.5333 27.1333 26.1333
v -10.5333 27.5000 26.1333
v -26.1333 27.5000 26.1333
f 665//5 666//5 667//5 668//5
v -10.5333 27.1333 10.5333
v -26.1333 27.1333 10.5333
v -26.1333 27.5000 10.5333
v -10.5333 27.5000 10.5333
f 669//6 670//6 671//6 672//6
usemtl yesil
v -10.5333 10.5333 27.1333
v -10.5333 26.1333 27.1333
v -10.5333 26.1333 27.5000
v -10.5333 10.5333 27.5000
f 673//1 674//1 675//1 676//1
v -26.1333 10.5333 27.5000
v -26.1333 26.1333 27.5000
v -26.1333 26.1333 27.1333
v -26.1333 10.5333 27.1333
f 677//2 678//2 679//2 680//2
v -26.1333 26.1333 27.1333
v -26.1333 26.1333 27.5000
v -10.5333 26.1333 27.5000
v -10.5333 26.1333 27.1333
f 681//3 682//3 683//3 684//3
v -26.1333 10.5333 27.5000
v -26.1333 10.5333 27.1333
v -10.5333 10.5333 27.1333
v -10.5333 10.5333 27.5000
f 685//4 686//4 687//4 688//4
v -26.1333 10.5333 27.5000
v -10.5333 10.5333 27.5000
v -10.5333 26.1333 27.5000
v -26.1333 26.1333 27.5000
f 689//5 690//5 691//5 692//5
v -10.5333 10.5333 27.1333
v -26.1333 10.5333 27.1333
v -26.1333 26.1333 27.1333
v -10.5333 26.1333 27.1333
f 693//6 694//6 695//6 696//6
usemtl turuncu
v -27.1333 10.5333 10.5333
v -27.1333 26.1333 10.5333
v -27.1333 26.1333 26.1333
v -27.1333 10.5333 26.1333
f 697//1 698//1 699//1 700//1
v -27.5000 10.5333 26.1333
v -27.5000 26.1333 26.1333
v -27.5000 26.1333 10.5333
v -27.5000 10.5333 10.5333
f 701//2 702//2 703//2 704//2
v -27.5000 26.1333 10.5333
v -27.5000 26.1333 26.1333
v -27.1333 26.1333 26.1333
v -27.1333 26.1333 10.5333
f 705//3 706//3 707//3 708//3
v -27.5000 10.5333 26.1333
v -27.5000 10.5333 10.5333
v -27.1333 10.5333 10.5333
v -27.1333 10.5333 26.1333
f 709//4 710//4 711//4 712//4
v -27.5000 10.5333 26.1333
v -27.1333 10.5333 26.1333
v -27.1333 26.1333 26.1333
v -27.5000 26.1333 26.1333
f 713//5 714//5 715//5 716//5
v -27.1333 10.5333 10.5333
v -27.5000 10.5333 10.5333
v -27.5000 26.1333 10.5333
v -27.1333 26.1333 10.5333
f 717//6 718//6 719//6 720//6
usemtl siyah
v 8.8000 -27.1333 -27.1333
v 8.8000 -9.5333 -27.1333
v 8.8000 -9.5333 -9.5333
v 8.8000 -27.1333 -9.5333
f 721//1 722//1 723//1 724//1
v -8.8000 -27.1333 -9.5333
v -8.8000 -9.5333 -9.5333
v -8.8000 -9.5333 -27.1333
v -8.8000 -27.1333 -27.1333
f 725//2 726//2 727//2 728//2
v -8.8000 -9.5333 -27.1333
v -8.8000 -9.5333 -9.5333
v 8.8000 -9.5333 -9.5333
v 8.8000 -9.5333 -27.1333
f 729//3 730//3 731//3 732//3
v -8.8000 -27.1333 -9.5333
v -8.8000 -27.1333 -27.1333
v 8.8000 -27.1333 -27.1333
v 8.8000 -27.1333 -9.5333
f 733//4 734//4 735//4 736//4
v -8.8000 -27.1333 -9.5333
v 8.8000 -27.1333 -9.5333
v 8.8000 -9.5333 -9.5333
v -8.8000 -9.5333 -9.5333
f 737//5 738//5 739//5 740//5
v 8.8000 -27.1333 -27.1333
v -8.8000 -27.1333 -27.1333
v -8.8000 -9.5333 -27.1333
v 8.8000 -9.5333 -27.1333
f 741//6 742//6 743//6 744//6
usemtl sari
v 7.8000 -27.5000 -26.1333
v 7.8000 -27.1333 -26.1333
v 7.8000 -27.1333 -10.5333
v 7.8000 -27.5000 -10.5333
f 745//1 746//1 747//1 748//1
v -7.8000 -27.5000 -10.5333
v -7.8000 -27.1333 -10.5333
v -7.8000 -27.1333 -26.1333
v -7.8000 -27.5000 -26.1333
f 749//2 750//2 751//2 752//2
v -7.8000 -27.1333 -26.1333
v -7.8000 -27.1333 -10.5333
v 7.8000 -27.1333 -10.5333
v 7.8000 -27.1333 -26.1333
f 753//3 754//3 755//3 756//3
v -7.8000 -27.5000 -10.5333
v -7.8000 -27.5000 -26.1333
v 7.8000 -27.5000 -26.1333
v 7.8000 -27.5000 -10.5333
f 757//4 758//4 759//4 760//4
v -7.8000 -27.5000 -10.5333
v 7.8000 -27.5000 -10.5333
v 7.8000 -27.1333 -10.5333
v -7.8000 -27.1333 -10.5333
f 761//5 762//5 763//5 764//5
v 7.8000 -27.5000 -26.1333
v -7.8000 -27.5000 -26.1333
v -7.8000 -27.1333 -26.1333
v 7.8000 -27.1333 -26.1333
f 765//6 766//6 767//6 768//6
usemtl mavi
v 7.8000 -26.1333 -27.5000
v 7.8000 -10.5333 -27.5000
v 7.8000 -10.5333 -27.1333
v 7.8000 -26.1333 -27.1333
f 769//1 770//1 771//1 772//1
v -7.8000 -26.1333 -27.1333
v -7.8000 -10.5333 -27.1333
v -7.8000 -10.5333 -27.5000
v -7.8000 -26.1333 -27.5000
f 773//2 774//2 775//2 776//2
v -7.8000 -10.5333 -27.5000
v -7.8000 -10.5333 -27.1333
v 7.8000 -10.5333 -27.1333
v 7.8000 -10.5333 -27.5000
f 777//3 778//3 779//3 780//3
v -7.8000 -26.1333 -27.1333
v -7.8000 -26.1333 -27.5000
v 7.8000 -26.1333 -27.5000
v 7.8000 -26.1333 -27.1333
f 781//4 782//4 783//4 784//4
v -7.8000 -26.1333 -27.1333
v 7.8000 -26.1333 -27.1333
v 7.8000 -10.5333 -27.1333
v -7.8000 -10.5333 -27.1333
f 785//5 786//5 787//5 788//5
v 7.8000 -26.1333 -27.5000
v -7.8000 -26.1333 -27.5000
v -7.8000 -10.5333 -27.5000
v 7.8000 -10.5333 -27.5000
f 789//6 790//6 791//6 792//6
usemtl siyah
v 8.8000 -27.1333 -8.8000
v 8.8000 -9.5333 -8.8000
v 8.8000 -9.5333 8.8000
v 8.8000 -27.1333 8.8000
f 793//1 794//1 795//1 796//1
v -8.8000 -27.1333 8.8000
v -8.8000 -9.5333 8.8000
v -8.8000 -9.5333 -8.8000
v -8.8000 -27.1333 -8.8000
f 797//2 798//2 799//2 800//2
v -8.8000 -9.5333 -8.8000
v -8.8000 -9.5333 8.8000
v 8.8000 -9.5333 8.8000
v 8.8000 -9.5333 -8.8000
f 801//3 802//3 803//3 804//3
v -8.8000 -27.1333 8.8000
v -8.8000 -27.1333 -8.8000
v 8.8000 -27.1333 -8.8000
v 8.8000 -27.1333 8.8000
f 805//4 806//4 807//4 808//4
v -8.8000 -27.1333 8.8000
v 8.8000 -27.1333 8.8000
v 8.8000 -9.5333 8.8000
v -8.8000 -9.5333 8.8000
f 809//5 810//5 811//5 812//5
v 8.8000 -27.1333 -8.8000
v -8.8000 -27.1333 -8.8000
v -8.8000 -9.5333 -8.8000
v 8.8000 -9.5333 -8.8000
f 813//6 814//6 815//6 816//6
usemtl sari
v 7.8000 -27.5000 -7.8000
v 7.8000 -27.1333 -7.8000
v 7.8000 -27.1333 7.8000
v 7.8000 -27.5000 7.8000
f 817//1 818//1 819//1 820//1
v -7.8000 -27.5000 7.8000
v -7.8000 -27.1333 7.8000
v -7.8000 -27.1333 -7.8000
v -7.8000 -27.5000 -7.8000
f 821//2 822//2 823//2 824//2
v -7.8000 -27.1333 -7.8000
v -7.8000 -27.1333 7.8000
v 7.8000 -27.1333 7.8000
v 7.8000 -27.1333 -7.8000
f 825//3 826//3 827//3 828//3
v -7.8000 -27.5000 7.8000
v -7.8000 -27.5000 -7.8000
v 7.8000 -27.5000 -7.8000
v 7.8000 -27.5000 7.8000
f 829//4 830//4 831//4 832//4
v -7.8000 -27.5000 7.8000
v 7.8000 -27.5000 7.8000
v 7.8000 -27.1333 7.8000
v -7.8000 -27.1333 7.8000
f 833//5 834//5 835//5 836//5
v 7.8000 -27.5000 -7.8000
v -7.8000 -27.5000 -7.8000
v -7.8000 -27.1333 -7.8000
v 7.8000 -27.1333 -7.8000
f 837//6 838//6 839//6 840//6
usemtl siyah
v 8.8000 -27.1333 9.5333
v 8.8000 -9.5333 9.5333
v 8.8000 -9.5333 27.1333
v 8.8000 -27.1333 27.1333
f 841//1 842//1 843//1 844//1
v -8.8000 -27.1333 27.1333
v -8.8000 -9.5333 27.1333
v -8.8000 -9.5333 9.5333
v -8.8000 -27.1333 9.5333
f 845//2 846//2 847//2 848//2
v -8.8000 -9.5333 9.5333
v -8.8000 -9.5333 27.1333
v 8.8000 -9.5333 27.1333
v 8.8000 -9.5333 9.5333
f 849//3 850//3 851//3 852//3
v -8.8000 -27.1333 27.1333
v -8.8000 -27.1333 9.5333
v 8.8000 -27.1333 9.5333
v 8.8000 -27.1333 27.1333
f 853//4 854//4 855//4 856//4
v -8.8000 -27.1333 27.1333
v 8.8000 -27.1333 27.1333
v 8.8000 -9.5333 27.1333
v -8.8000 -9.5333 27.1333
f 857//5 858//5 859//5 860//5
v 8.8000 -27.1333 9.5333
v -8.8000 -27.1333 9.5333
v -8.8000 -9.5333 9.5333
v 8.8000 -9.5333 9.5333
f 861//6 862//6 863//6 864//6
usemtl sari
v 7.8000 -27.5000 10.5333
v 7.8000 -27.1333 10.5333
v 7.8000 -27.1333 26.1333
v 7.8000 -27.5000 26.1333
f 865//1 866//1 867//1 868//1
v -7.8000 -27.5000 26.1333
v -7.8000 -27.1333 26.1333
v -7.8000 -27.1333 10.5333
v -7.8000 -27.5000 10.5333
f 869//2 870//2 871//2 872//2
v -7.8000 -27.1333 10.5333
v -7.8000 -27.1333 26.1333
v 7.8000 -27.1333 26.1333
v 7.8000 -27.1333 10.5333
f 873//3 874//3 875//3 876//3
v -7.8000 -27.5000 26.1333
v -7.8000 -27.5000 10.5333
v 7.8000 -27.5000 10.5333
v 7.8000 -27.5000 26.1333
f 877//4 878//4 879//4 880//4
v -7.8000 -27.5000 26.1333
v 7.8000 -27.5000 26.1333
v 7.8000 -27.1333 26.1333
v -7.8000 -27.1333 26.1333
f 881//5 882//5 883//5 884//5
v 7.8000 -27.5000 10.5333
v -7.8000 -27.5000 10.5333
v -7.8000 -27.1333 10.5333
v 7.8000 -27.1333 10.5333
f 885//6 886//6 887//6 888//6
usemtl yesil
v 7.8000 -26.1333 27.1333
v 7.8000 -10.5333 27.1333
v 7.8000 -10.5333 27.5000
v 7.8000 -26.1333 27.5000
f 889//1 890//1 891//1 892//1
v -7.8000 -26.1333 27.5000
v -7.8000 -10.5333 27.5000
v -7.8000 -10.5333 27.1333
v -7.8000 -26.1333 27.1333
f 893//2 894//2 895//2 896//2
v -7.8000 -10.5333 27.1333
v -7.8000 -10.5333 27.5000
v 7.8000 -10.5333 27.5000
v 7.8000 -10.5333 27.1333
f 897//3 898//3 899//3 900//3
v -7.8000 -26.1333 27.5000
v -7.8000 -26.1333 27.1333
v 7.8000 -26.1333 27.1333
v 7.8000 -26.1333 27.5000
f 901//4 902//4 903//4 904//4
v -7.8000 -26.1333 27.5000
v 7.8000 -26.1333 27.5000
v 7.8000 -10.5333 27.5000
v -7.8000 -10.5333 27.5000
f 905//5 906//5 907//5 908//5
v 7.8000 -26.1333 27.1333
v -7.8000 -26.1333 27.1333
v -7.8000 -10.5333 27.1333
v 7.8000 -10.5333 27.1333
f 909//6 910//6 911//6 912//6
usemtl siyah
v 8.8000 -8.8000 -27.1333
v 8.8000 8.8000 -27.1333
v 8.8000 8.8000 -9.5333
v 8.8000 -8.8000 -9.5333
f 913//1 914//1 915//1 916//1
v -8.8000 -8.8000 -9.5333
v -8.8000 8.8000 -9.5333
v -8.8000 8.8000 -27.1333
v -8.8000 -8.8000 -27.1333
f 917//2 918//2 919//2 920//2
v -8.8000 8.8000 -27.1333
v -8.8000 8.8000 -9.5333
v 8.8000 8.8000 -9.5333
v 8.8000 8.8000 -27.1333
f 921//3 922//3 923//3 924//3
v -8.8000 -8.8000 -9.5333
v -8.8000 -8.8000 -27.1333
v 8.8000 -8.8000 -27.1333
v 8.8000 -8.8000 -9.5333
f 925//4 926//4 927//4 928//4
v -8.8000 -8.8000 -9.5333
v 8.8000 -8.8000 -9.5333
v 8.8000 8.8000 -9.5333
v -8.8000 8.8000 -9.5333
f 929//5 930//5 931//5 932//5
v 8.8000 -8.8000 -27.1333
v -8.8000 -8.8000 -27.1333
v -8.8000 8.8000 -27.1333
v 8.8000 8.8000 -27.1333
f 933//6 934//6 935//6 936//6
usemtl mavi
v 7.8000 -7.8000 -27.5000
v 7.8000 7.8000 -27.5000
v 7.8000 7.8000 -27.1333
v 7.8000 -7.8000 -27.1333
f 937//1 938//1 939//1 940//1
v -7.8000 -7.8000 -27.1333
v -7.8000 7.8000 -27.1333
v -7.8000 7.8000 -27.5000
v -7.8000 -7.8000 -27.5000
f 941//2 942//2 943//2 944//2
v -7.8000 7.8000 -27.5000
v -7.8000 7.8000 -27.1333
v 7.8000 7.8000 -27.1333
v 7.8000 7.8000 -27.5000
f 945//3 946//3 947//3 948//3
v -7.8000 -7.8000 -27.1333
v -7.8000 -7.8000 -27.5000
v 7.8000 -7.8000 -27.5000
v 7.8000 -7.8000 -27.1333
f 949//4 950//4 951//4 952//4
v -7.8000 -7.8000 -27.1333
v 7.8000 -7.8000 -27.1333
v 7.8000 7.8000 -27.1333
v -7.8000 7.8000 -27.1333
f 953//5 954//5 955//5 956//5
v 7.8000 -7.8000 -27.5000
v -7.8000 -7.8000 -27.5000
v -7.8000 7.8000 -27.5000
v 7.8000 7.8000 -27.5000
f 957//6 958//6 959//6 960//6
usemtl siyah
v 8.8000 -8.8000 -8.8000
v 8.8000 8.8000 -8.8000
v 8.8000 8.8000 8.8000
v 8.8000 -8.8000 8.8000
f 961//1 962//1 963//1 964//1
v -8.8000 -8.8000 8.8000
v -8.8000 8.8000 8.8000
v -8.8000 8.8000 -8.8000
v -8.8000 -8.8000 -8.8000
f 965//2 966//2 967//2 968//2
v -8.8000 8.8000 -8.8000
v -8.8000 8.8000 8.8000
v 8.8000 8.8000 8.8000
v 8.8000 8.8000 -8.8000
f 969//3 970//3 971//3 972//3
v -8.8000 -8.8000 8.8000
v -8.8000 -8.8000 -8.8000
v 8.8000 -8.8000 -8.8000
v 8.8000 -8.8000 8.8000
f 973//4 974//4 975//4 976//4
v -8.8000 -8.8000 8.8000
v 8.8000 -8.8000 8.8000
v 8.8000 8.8000 8.8000
v -8.8000 8.8000 8.8000
f 977//5 978//5 979//5 980//5
v 8.8000 -8.8000 -8.8000
v -8.8000 -8.8000 -8.8000
v -8.8000 8.8000 -8.8000
v 8.8000 8.8000 -8.8000
f 981//6 982//6 983//6 984//6
usemtl siyah
v 8.8000 -8.8000 9.5333
v 8.8000 8.8000 9.5333
v 8.8000 8.8000 27.1333
v 8.8000 -8.8000 27.1333
f 985//1 986//1 987//1 988//1
v -8.8000 -8.8000 27.1333
v -8.8000 8.8000 27.1333
v -8.8000 8.8000 9.5333
v -8.8000 -8.8000 9.5333
f 989//2 990//2 991//2 992//2
v -8.8000 8.8000 9.5333
v -8.8000 8.8000 27.1333
v 8.8000 8.8000 27.1333
v 8.8000 8.8000 9.5333
f 993//3 994//3 995//3 996//3
v -8.8000 -8.8000 27.1333
v -8.8000 -8.8000 9.5333
v 8.8000 -8.8000 9.5333
v 8.8000 -8.8000 27.1333
f 997//4 998//4 999//4 1000//4
v -8.8000 -8.8000 27.1333
v 8.8000 -8.8000 27.1333
v 8.8000 8.8000 27.1333
v -8.8000 8.8000 27.1333
f 1001//5 1002//5 1003//5 1004//5
v 8.8000 -8.8000 9.5333
v -8.8000 -8.8000 9.5333
v -8.8000 8.8000 9.5333
v 8.8000 8.8000 9.5333
f 1005//6 1006//6 1007//6 1008//6
usemtl yesil
v 7.8000 -7.8000 27.1333
v 7.8000 7.8000 27.1333
v 7.8000 7.8000 27.5000
v 7.8000 -7.8000 27.5000
f 1009//1 1010//1 1011//1 1012//1
v -7.8000 -7.8000 27.5000
v -7.8000 7.8000 27.5000
v -7.8000 7.8000 27.1333
v -7.8000 -7.8000 27.1333
f 1013//2 1014//2 1015//2 1016//2
v -7.8000 7.8000 27.1333
v -7.8000 7.8000 27.5000
v 7.8000 7.8000 27.5000
v 7.8000 7.8000 27.1333
f 1017//3 1018//3 1019//3 1020//3
v -7.8000 -7.8000 27.5000
v -7.8000 -7.8000 27.1333
v 7.8000 -7.8000 27.1333
v 7.8000 -7.8000 27.5000
f 1021//4 1022//4 1023//4 1024//4
v -7.8000 -7.8000 27.5000
v 7.8000 -7.8000 27.5000
v 7.8000 7.8000 27.5000
v -7.8000 7.8000 27.5000
f 1025//5 1026//5 1027//5 1028//5
v 7.8000 -7.8000 27.1333
v -7.8000 -7.8000 27.1333
v -7.8000 7.8000 27.1333
v 7.8000 7.8000 27.1333
f 1029//6 1030//6 1031//6 1032//6
usemtl siyah
v 8.8000 9.5333 -27.1333
v 8.8000 27.1333 -27.1333
v 8.8000 27.1333 -9.5333
v 8.8000 9.5333 -9.5333
f 1033//1 1034//1 1035//1 1036//1
v -8.8000 9.5333 -9.5333
v -8.8000 27.1333 -9.5333
v -8.8000 27.1333 -27.1333
v -8.8000 9.5333 -27.1333
f 1037//2 1038//2 1039//2 1040//2
v -8.8000 27.1333 -27.1333
v -8.8000 27.1333 -9.5333
v 8.8000 27.1333 -9.5333
v 8.8000 27.1333 -27.1333
f 1041//3 1042//3 1043//3 1044//3
v -8.8000 9.5333 -9.5333
v -8.8000 9.5333 -27.1333
v 8.8000 9.5333 -27.1333
v 8.8000 9.5333 -9.5333
f 1045//4 1046//4 1047//4 1048//4
v -8.8000 9.5333 -9.5333
v 8.8000 9.5333 -9.5333
v 8.8000 27.1333 -9.5333
v -8.8000 27.1333 -9.5333
f 1049//5 1050//5 1051//5 1052//5
v 8.8000 9.5333 -27.1333
v -8.8000 9.5333 -27.1333
v -8.8000 27.1333 -27.1333
v 8.8000 27.1333 -27.1333
f 1053//6 1054//6 1055//6 1056//6
usemtl beyaz
v 7.8000 27.1333 -26.1333
v 7.8000 27.5000 -26.1333
v 7.8000 27.5000 -10.5333
v 7.8000 27.1333 -10.5333
f 1057//1 1058//1 1059//1 1060//1
v -7.8000 27.1333 -10.5333
v -7.8000 27.5000 -10.5333
v -7.8000 27.5000 -26.1333
v -7.8000 27.1333 -26.1333
f 1061//2 1062//2 1063//2 1064//2
v -7.8000 27.5000 -26.1333
v -7.8000 27.5000 -10.5333
v 7.8000 27.5000 -10.5333
v 7.8000 27.5000 -26.1333
f 1065//3 1066//3 1067//3 1068//3
v -7.8000 27.1333 -10.5333
v -7.8000 27.1333 -26.1333
v 7.8000 27.1333 -26.1333
v 7.8000 27.1333 -10.5333
f 1069//4 1070//4 1071//4 1072//4
v -7.8000 27.1333 -10.5333
v 7.8000 27.1333 -10.5333
v 7.8000 27.5000 -10.5333
v -7.8000 27.5000 -10.5333
f 1073//5 1074//5 1075//5 1076//5
v 7.8000 27.1333 -26.1333
v -7.8000 27.1333 -26.1333
v -7.8000 27.5000 -26.1333
v 7.8000 27.5000 -26.1333
f 1077//6 1078//6 1079//6 1080//6
usemtl mavi
v 7.8000 10.5333 -27.5000
v 7.8000 26.1333 -27.5000
v 7.8000 26.1333 -27.1333
v 7.8000 10.5333 -27.1333
f 1081//1 1082//1 1083//1 1084//1
v -7.8000 10.5333 -27.1333
v -7.8000 26.1333 -27.1333
v -7.8000 26.1333 -27.5000
v -7.8000 10.5333 -27.5000
f 1085//2 1086//2 1087//2 1088//2
v -7.8000 26.1333 -27.5000
v -7.8000 26.1333 -27.1333
v 7.8000 26.1333 -27.1333
v 7.8000 26.1333 -27.5000
f 1089//3 1090//3 1091//3 1092//3
v -7.8000 10.5333 -27.1333
v -7.8000 10.5333 -27.5000
v 7.8000 10.5333 -27.5000
v 7.8000 10.5333 -27.1333
f 1093//4 1094//4 1095//4 1096//4
v -7.8000 10.5333 -27.1333
v 7.8000 10.5333 -27.1333
v 7.8000 26.1333 -27.1333
v -7.8000 26.1333 -27.1333
f 1097//5 1098//5 1099//5 1100//5
v 7.8000 10.5333 -27.5000
v -7.8000 10.5333 -27.5000
v -7.8000 26.1333 -27.5000
v 7.8000 26.1333 -27.5000
f 1101//6 1102//6 1103//6 1104//6
usemtl siyah
v 8.8000 9.5333 -8.8000
v 8.8000 27.1333 -8.8000
v 8.8000 27.1333 8.8000
v 8.8000 9.5333 8.8000
f 1105//1 1106//1 1107//1 1108//1
v -8.8000 9.5333 8.8000
v -8.8000 27.1333 8.8000
v -8.8000 27.1333 -8.8000
v -8.8000 9.5333 -8.8000
f 1109//2 1110//2 1111//2 1112//2
v -8.8000 27.1333 -8.8000
v -8.8000 27.1333 8.8000
v 8.8000 27.1333 8.8000
v 8.8000 27.1333 -8.8000
f 1113//3 1114//3 1115//3 1116//3
v -8.8000 9.5333 8.8000
v -8.8000 9.5333 -8.8000
v 8.8000 9.5333 -8.8000
v 8.8000 9.5333 8.8000
f 1117//4 1118//4 1119//4 1120//4
v -8.8000 9.5333 8.8000
v 8.8000 9.5333 8.8000
v 8.8000 27.1333 8.8000
v -8.8000 27.1333 8.8000
f 1121//5 1122//5 1123//5 1124//5
v 8.8000 9.5333 -8.8000
v -8.8000 9.5333 -8.8000
v -8.8000 27.1333 -8.8000
v 8.8000 27.1333 -8.8000
f 1125//6 1126//6 1127//6 1128//6
usemtl beyaz
v 7.8000 27.1333 -7.8000
v 7.8000 27.5000 -7.8000
v 7.8000 27.5000 7.8000
v 7.8000 27.1333 7.8000
f 1129//1 1130//1 1131//1 1132//1
v -7.8000 27.1333 7.8000
v -7.8000 27.5000 7.8000
v -7.8000 27.5000 -7.8000
v -7.8000 27.1333 -7.8000
f 1133//2 1134//2 1135//2 1136//2
v -7.8000 27.5000 -7.8000
v -7.8000 27.5000 7.8000
v 7.8000 27.5000 7.8000
v 7.8000 27.5000 -7.8000
f 1137//3 1138//3 1139//3 1140//3
v -7.8000 27.1333 7.8000
v -7.8000 27.1333 -7.8000
v 7.8000 27.1333 -7.8000
v 7.8000 27.1333 7.8000
f 1141//4 1142//4 1143//4 1144//4
v -7.8000 27.1333 7.8000
v 7.8000 27.1333 7.8000
v 7.8000 27.5000 7.8000
v -7.8000 27.5000 7.8000
f 1145//5 1146//5 1147//5 1148//5
v 7.8000 27.1333 -7.8000
v -7.8000 27.1333 -7.8000
v -7.8000 27.5000 -7.8000
v 7.8000 27.5000 -7.8000
f 1149//6 1150//6 1151//6 1152//6
usemtl siyah
v 8.8000 9.5333 9.5333
v 8.8000 27.1333 9.5333
v 8.8000 27.1333 27.1333
v 8.8000 9.5333 27.1333
f 1153//1 1154//1 1155//1 1156//1
v -8.8000 9.5333 27.1333
v -8.8000 27.1333 27.1333
v -8.8000 27.1333 9.5333
v -8.8000 9.5333 9.5333
f 1157//2 1158//2 1159//2 1160//2
v -8.8000 27.1333 9.5333
v -8.8000 27.1333 27.1333
v 8.8000 27.1333 27.1333
v 8.8000 27.1333 9.5333
f 1161//3 1162//3 1163//3 1164//3
v -8.8000 9.5333 27.1333
v -8.8000 9.5333 9.5333
v 8.8000 9.5333 9.5333
v 8.8000 9.5333 27.1333
f 1165//4 1166//4 1167//4 1168//4
v -8.8000 9.5333 27.1333
v 8.8000 9.5333 27.1333
v 8.8000 27.1333 27.1333
v -8.8000 27.1333 27.1333
f 1169//5 1170//5 1171//5 1172//5
v 8.8000 9.5333 9.5333
v -8.8000 9.5333 9.5333
v -8.8000 27.1333 9.5333
v 8.8000 27.1333 9.5333
f 1173//6 1174//6 1175//6 1176//6
usemtl beyaz
v 7.8000 27.1333 10.5333
v 7.8000 27.5000 10.5333
v 7.8000 27.5000 26.1333
v 7.8000 27.1333 26.1333
f 1177//1 1178//1 1179//1 1180//1
v -7.8000 27.1333 26.1333
v -7.8000 27.5000 26.1333
v -7.8000 27.5000 10.5333
v -7.8000 27.1333 10.5333
f 1181//2 1182//2 1183//2 1184//2
v -7.8000 27.5000 10.5333
v -7.8000 27.5000 26.1333
v 7.8000 27.5000 26.1333
v 7.8000 27.5000 10.5333
f 1185//3 1186//3 1187//3 1188//3
v -7.8000 27.1333 26.1333
v -7.8000 27.1333 10.5333
v 7.8000 27.1333 10.5333
v 7.8000 27.1333 26.1333
f 1189//4 1190//4 1191//4 1192//4
v -7.8000 27.1333 26.1333
v 7.8000 27.1333 26.1333
v 7.8000 27.5000 26.1333
v -7.8000 27.5000 26.1333
f 1193//5 1194//5 1195//5 1196//5
v 7.8000 27.1333 10.5333
v -7.8000 27.1333 10.5333
v -7.8000 27.5000 10.5333
v 7.8000 27.5000 10.5333
f 1197//6 1198//6 1199//6 1200//6
usemtl yesil
v 7.8000 10.5333 27.1333
v 7.8000 26.1333 27.1333
v 7.8000 26.1333 27.5000
v 7.8000 10.5333 27.5000
f 1201//1 1202//1 1203//1 1204//1
v -7.8000 10.5333 27.5000
v -7.8000 26.1333 27.5000
v -7.8000 26.1333 27.1333
v -7.8000 10.5333 27.1333
f 1205//2 1206//2 1207//2 1208//2
v -7.8000 26.1333 27.1333
v -7.8000 26.1333 27.5000
v 7.8000 26.1333 27.5000
v 7.8000 26.1333 27.1333
f 1209//3 1210//3 1211//3 1212//3
v -7.8000 10.5333 27.5000
v -7.8000 10.5333 27.1333
v 7.8000 10.5333 27.1333
v 7.8000 10.5333 27.5000
f 1213//4 1214//4 1215//4 1216//4
v -7.8000 10.5333 27.5000
v 7.8000 10.5333 27.5000
v 7.8000 26.1333 27.5000
v -7.8000 26.1333 27.5000
f 1217//5 1218//5 1219//5 1220//5
v 7.8000 10.5333 27.1333
v -7.8000 10.5333 27.1333
v -7.8000 26.1333 27.1333
v 7.8000 26.1333 27.1333
f 1221//6 1222//6 1223//6 1224//6
usemtl siyah
v 27.1333 -27.1333 -27.1333
v 27.1333 -9.5333 -27.1333
v 27.1333 -9.5333 -9.5333
v 27.1333 -27.1333 -9.5333
f 1225//1 1226//1 1227//1 1228//1
v 9.5333 -27.1333 -9.5333
v 9.5333 -9.5333 -9.5333
v 9.5333 -9.5333 -27.1333
v 9.5333 -27.1333 -27.1333
f 1229//2 1230//2 1231//2 1232//2
v 9.5333 -9.5333 -27.1333
v 9.5333 -9.5333 -9.5333
v 27.1333 -9.5333 -9.5333
v 27.1333 -9.5333 -27.1333
f 1233//3 1234//3 1235//3 1236//3
v 9.5333 -27.1333 -9.5333
v 9.5333 -27.1333 -27.1333
v 27.1333 -27.1333 -27.1333
v 27.1333 -27.1333 -9.5333
f 1237//4 1238//4 1239//4 1240//4
v 9.5333 -27.1333 -9.5333
v 27.1333 -27.1333 -9.5333
v 27.1333 -9.5333 -9.5333
v 9.5333 -9.5333 -9.5333
f 1241//5 1242//5 1243//5 1244//5
v 27.1333 -27.1333 -27.1333
v 9.5333 -27.1333 -27.1333
v 9.5333 -9.5333 -27.1333
v 27.1333 -9.5333 -27.1333
f 1245//6 1246//6 1247//6 1248//6
usemtl sari
v 26.1333 -27.5000 -26.1333
v 26.1333 -27.1333 -26.1333
v 26.1333 -27.1333 -10.5333
v 26.1333 -27.5000 -10.5333
f 1249//1 1250//1 1251//1 1252//1
v 10.5333 -27.5000 -10.5333
v 10.5333 -27.1333 -10.5333
v 10.5333 -27.1333 -26.1333
v 10.5333 -27.5000 -26.1333
f 1253//2 1254//2 1255//2 1256//2
v 10.5333 -27.1333 -26.1333
v 10.5333 -27.1333 -10.5333
v 26.1333 -27.1333 -10.5333
v 26.1333 -27.1333 -26.1333
f 1257//3 1258//3 1259//3 1260//3
v 10.5333 -27.5000 -10.5333
v 10.5333 -27.5000 -26.1333
v 26.1333 -27.5000 -26.1333
v 26.1333 -27.5000 -10.5333
f 1261//4 1262//4 1263//4 1264//4
v 10.5333 -27.5000 -10.5333
v 26.1333 -27.5000 -10.5333
v 26.1333 -27.1333 -10.5333
v 10.5333 -27.1333 -10.5333
f 1265//5 1266//5 1267//5 1268//5
v 26.1333 -27.5000 -26.1333
v 10.5333 -27.5000 -26.1333
v 10.5333 -27.1333 -26.1333
v 26.1333 -27.1333 -26.1333
f 1269//6 1270//6 1271//6 1272//6
usemtl mavi
v 26.1333 -26.1333 -27.5000
v 26.1333 -10.5333 -27.5000
v 26.1333 -10.5333 -27.1333
v 26.1333 -26.1333 -27.1333
f 1273//1 1274//1 1275//1 1276//1
v 10.5333 -26.1333 -27.1333
v 10.5333 -10.5333 -27.1333
v 10.5333 -10.5333 -27.5000
v 10.5333 -26.1333 -27.5000
f 1277//2 1278//2 1279//2 1280//2
v 10.5333 -10.5333 -27.5000
v 10.5333 -10.5333 -27.1333
v 26.1333 -10.5333 -27.1333
v 26.1333 -10.5333 -27.5000
f 1281//3 1282//3 1283//3 1284//3
v 10.5333 -26.1333 -27.1333
v 10.5333 -26.1333 -27.5000
v 26.1333 -26.1333 -27.5000
v 26.1333 -26.1333 -27.1333
f 1285//4 1286//4 1287//4 1288//4
v 10.5333 -26.1333 -27.1333
v 26.1333 -26.1333 -27.1333
v 26.1333 -10.5333 -27.1333
v 10.5333 -10.5333 -27.1333
f 1289//5 1290//5 1291//5 1292//5
v 26.1333 -26.1333 -27.5000
v 10.5333 -26.1333 -27.5000
v 10.5333 -10.5333 -27.5000
v 26.1333 -10.5333 -27.5000
f 1293//6 1294//6 1295//6 1296//6
usemtl kirmizi
v 27.5000 -26.1333 -26.1333
v 27.5000 -10.5333 -26.1333
v 27.5000 -10.5333 -10.5333
v 27.5000 -26.1333 -10.5333
f 1297//1 1298//1 1299//1 1300//1
v 27.1333 -26.1333 -10.5333
v 27.1333 -10.5333 -10.5333
v 27.1333 -10.5333 -26.1333
v 27.1333 -26.1333 -26.1333
f 1301//2 1302//2 1303//2 1304//2
v 27.1333 -10.5333 -26.1333
v 27.1333 -10.5333 -10.5333
v 27.5000 -10.5333 -10.5333
v 27.5000 -10.5333 -26.1333
f 1305//3 1306//3 1307//3 1308//3
v 27.1333 -26.1333 -10.5333
v 27.1333 -26.1333 -26.1333
v 27.5000 -26.1333 -26.1333
v 27.5000 -26.1333 -10.5333
f 1309//4 1310//4 1311//4 1312//4
v 27.1333 -26.1333 -10.5333
v 27.5000 -26.1333 -10.5333
v 27.5000 -10.5333 -10.5333
v 27.1333 -10.5333 -10.5333
f 1313//5 1314//5 1315//5 1316//5
v 27.5000 -26.1333 -26.1333
v 27.1333 -26.1333 -26.1333
v 27.1333 -10.5333 -26.1333
v 27.5000 -10.5333 -26.1333
f 1317//6 1318//6 1319//6 1320//6
usemtl siyah
v 27.1333 -27.1333 -8.8000
v 27.1333 -9.5333 -8.8000
v 27.1333 -9.5333 8.8000
v 27.1333 -27.1333 8.8000
f 1321//1 1322//1 1323//1 1324//1
v 9.5333 -27.1333 8.8000
v 9.5333 -9.5333 8.8000
v 9.5333 -9.5333 -8.8000
v 9.5333 -27.1333 -8.8000
f 1325//2 1326//2 1327//2 1328//2
v 9.5333 -9.5333 -8.8000
v 9.5333 -9.5333 8.8000
v 27.1333 -9.5333 8.8000
v 27.1333 -9.5333 -8.8000
f 1329//3 1330//3 1331//3 1332//3
v 9.5333 -27.1333 8.8000
v 9.5333 -27.1333 -8.8000
v 27.1333 -27.1333 -8.8000
v 27.1333 -27.1333 8.8000
f 1333//4 1334//4 1335//4 1336//4
v 9.5333 -27.1333 8.8000
v 27.1333 -27.1333 8.8000
v 27.1333 -9.5333 8.8000
v 9.5333 -9.5333 8.8000
f 1337//5 1338//5 1339//5 1340//5
v 27.1333 -27.1333 -8.8000
v 9.5333 -27.1333 -8.8000
v 9.5333 -9.5333 -8.8000
v 27.1333 -9.5333 -8.8000
f 1341//6 1342//6 1343//6 1344//6
usemtl sari
v 26.1333 -27.5000 -7.8000
v 26.1333 -27.1333 -7.8000
v 26.1333 -27.1333 7.8000
v 26.1333 -27.5000 7.8000
f 1345//1 1346//1 1347//1 1348//1
v 10.5333 -27.5000 7.8000
v 10.5333 -27.1333 7.8000
v 10.5333 -27.1333 -7.8000
v 10.5333 -27.5000 -7.8000
f 1349//2 1350//2 1351//2 1352//2
v 10.5333 -27.1333 -7.8000
v 10.5333 -27.1333 7.8000
v 26.1333 -27.1333 7.8000
v 26.1333 -27.1333 -7.8000
f 1353//3 1354//3 1355//3 1356//3
v 10.5333 -27.5000 7.8000
v 10.5333 -27.5000 -7.8000
v 26.1333 -27.5000 -7.8000
v 26.1333 -27.5000 7.8000
f 1357//4 1358//4 1359//4 1360//4
v 10.5333 -27.5000 7.8000
v 26.1333 -27.5000 7.8000
v 26.1333 -27.1333 7.8000
v 10.5333 -27.1333 7.8000
f 1361//5 1362//5 1363//5 1364//5
v 26.1333 -27.5000 -7.8000
v 10.5333 -27.5000 -7.8000
v 10.5333 -27.1333 -7.8000
v 26.1333 -27.1333 -7.8000
f 1365//6 1366//6 1367//6 1368//6
usemtl kirmizi
v 27.5000 -26.1333 -7.8000
v 27.5000 -10.5333 -7.8000
v 27.5000 -10.5333 7.8000
v 27.5000 -26.1333 7.8000
f 1369//1 1370//1 1371//1 1372//1
v 27.1333 -26.1333 7.8000
v 27.1333 -10.5333 7.8000
v 27.1333 -10.5333 -7.8000
v 27.1333 -26.1333 -7.8000
f 1373//2 1374//2 1375//2 1376//2
v 27.1333 -10.5333 -7.8000
v 27.1333 -10.5333 7.8000
v 27.5000 -10.5333 7.8000
v 27.5000 -10.5333 -7.8000
f 1377//3 1378//3 1379//3 1380//3
v 27.1333 -26.1333 7.8000
v 27.1333 -26.1333 -7.8000
v 27.5000 -26.1333 -7.8000
v 27.5000 -26.1333 7.8000
f 1381//4 1382//4 1383//4 1384//4
v 27.1333 -26.1333 7.8000
v 27.5000 -26.1333 7.8000
v 27.5000 -10.5333 7.8000
v 27.1333 -10.5333 7.8000
f 1385//5 1386//5 1387//5 1388//5
v 27.5000 -26.1333 -7.8000
v 27.1333 -26.1333 -7.8000
v 27.1333 -10.5333 -7.8000
v 27.5000 -10.5333 -7.8000
f 1389//6 1390//6 1391//6 1392//6
usemtl siyah
v 27.1333 -27.1333 9.5333
v 27.1333 -9.5333 9.5333
v 27.1333 -9.5333 27.1333
v 27.1333 -27.1333 27.1333
f 1393//1 1394//1 1395//1 1396//1
v 9.5333 -27.1333 27.1333
v 9.5333 -9.5333 27.1333
v 9.5333 -9.5333 9.5333
v 9.5333 -27.1333 9.5333
f 1397//2 1398//2 1399//2 1400//2
v 9.5333 -9.5333 9.5333
v 9.5333 -9.5333 27.1333
v 27.1333 -9.5333 27.1333
v 27.1333 -9.5333 9.5333
f 1401//3 1402//3 1403//3 1404//3
v 9.5333 -27.1333 27.1333
v 9.5333 -27.1333 9.5333
v 27.1333 -27.1333 9.5333
v 27.1333 -27.1333 27.1333
f 1405//4 1406//4 1407//4 1408//4
v 9.5333 -27.1333 27.1333
v 27.1333 -27.1333 27.1333
v 27.1333 -9.5333 27.1333
v 9.5333 -9.5333 27.1333
f 1409//5 1410//5 1411//5 1412//5
v 27.1333 -27.1333 9.5333
v 9.5333 -27.1333 9.5333
v 9.5333 -9.5333 9.5333
v 27.1333 -9.5333 9.5333
f 1413//6 1414//6 1415//6 1416//6
usemtl sari
v 26.1333 -27.5000 10.5333
v 26.1333 -27.1333 10.5333
v 26.1333 -27.1333 26.1333
v 26.1333 -27.5000 26.1333
f 1417//1 1418//1 1419//1 1420//1
v 10.5333 -27.5000 26.1333
v 10.5333 -27.1333 26.1333
v 10.5333 -27.1333 10.5333
v 10.5333 -27.5000 10.5333
f 1421//2 1422//2 1423//2 1424//2
v 10.5333 -27.1333 10.5333
v 10.5333 -27.1333 26.1333
v 26.1333 -27.1333 26.1333
v 26.1333 -27.1333 10.5333
f 1425//3 1426//3 1427//3 1428//3
v 10.5333 -27.5000 26.1333
v 10.5333 -27.5000 10.5333
v 26.1333 -27.5000 10.5333
v 26.1333 -27.5000 26.1333
f 1429//4 1430//4 1431//4 1432//4
v 10.5333 -27.5000 26.1333
v 26.1333 -27.5000 26.1333
v 26.1333 -27.1333 26.1333
v 10.5333 -27.1333 26.1333
f 1433//5 1434//5 1435//5 1436//5
v 26.1333 -27.5000 10.5333
v 10.5333 -27.5000 10.5333
v 10.5333 -27.1333 10.5333
v 26.1333 -27.1333 10.5333
f 1437//6 1438//6 1439//6 1440//6
usemtl yesil
v 26.1333 -26.1333 27.1333
v 26.1333 -10.5333 27.1333
v 26.1333 -10.5333 27.5000
v 26.1333 -26.1333 27.5000
f 1441//1 1442//1 1443//1 1444//1
v 10.5333 -26.1333 27.5000
v 10.5333 -10.5333 27.5000
v 10.5333 -10.5333 27.1333
v 10.5333 -26.1333 27.1333
f 1445//2 1446//2 1447//2 1448//2
v 10.5333 -10.5333 27.1333
v 10.5333 -10.5333 27.5000
v 26.1333 -10.5333 27.5000
v 26.1333 -10.5333 27.1333
f 1449//3 1450//3 1451//3 1452//3
v 10.5333 -26.1333 27.5000
v 10.5333 -26.1333 27.1333
v 26.1333 -26.1333 27.1333
v 26.1333 -26.1333 27.5000
f 1453//4 1454//4 1455//4 1456//4
v 10.5333 -26.1333 27.5000
v 26.1333 -26.1333 27.5000
v 26.1333 -10.5333 27.5000
v 10.5333 -10.5333 27.5000
f 1457//5 1458//5 1459//5 1460//5
v 26.1333 -26.1333 27.1333
v 10.5333 -26.1333 27.1333
v 10.5333 -10.5333 27.1333
v 26.1333 -10.5333 27.1333
f 1461//6 1462//6 1463//6 1464//6
usemtl kirmizi
v 27.5000 -26.1333 10.5333
v 27.5000 -10.5333 10.5333
v 27.5000 -10.5333 26.1333
v 27.5000 -26.1333 26.1333
f 1465//1 1466//1 1467//1 1468//1
v 27.1333 -26.1333 26.1333
v 27.1333 -10.5333 26.1333
v 27.1333 -10.5333 10.5333
v 27.1333 -26.1333 10.5333
f 1469//2 1470//2 1471//2 1472//2
v 27.1333 -10.5333 10.5333
v 27.1333 -10.5333 26.1333
v 27.5000 -10.5333 26.1333
v 27.5000 -10.5333 10.5333
f 1473//3 1474//3 1475//3 1476//3
v 27.1333 -26.1333 26.1333
v 27.1333 -26.1333 10.5333
v 27.5000 -26.1333 10.5333
v 27.5000 -26.1333 26.1333
f 1477//4 1478//4 1479//4 1480//4
v 27.1333 -26.1333 26.1333
v 27.5000 -26.1333 26.1333
v 27.5000 -10.5333 26.1333
v 27.1333 -10.5333 26.1333
f 1481//5 1482//5 1483//5 1484//5
v 27.5000 -26.1333 10.5333
v 27.1333 -26.1333 10.5333
v 27.1333 -10.5333 10.5333
v 27.5000 -10.5333 10.5333
f 1485//6 1486//6 1487//6 1488//6
usemtl siyah
v 27.1333 -8.8000 -27.1333
v 27.1333 8.8000 -27.1333
v 27.1333 8.8000 -9.5333
v 27.1333 -8.8000 -9.5333
f 1489//1 1490//1 1491//1 1492//1
v 9.5333 -8.8000 -9.5333
v 9.5333 8.8000 -9.5333
v 9.5333 8.8000 -27.1333
v 9.5333 -8.8000 -27.1333
f 1493//2 1494//2 1495//2 1496//2
v 9.5333 8.8000 -27.1333
v 9.5333 8.8000 -9.5333
v 27.1333 8.8000 -9.5333
v 27.1333 8.8000 -27.1333
f 1497//3 1498//3 1499//3 1500//3
v 9.5333 -8.8000 -9.5333
v 9.5333 -8.8000 -27.1333
v 27.1333 -8.8000 -27.1333
v 27.1333 -8.8000 -9.5333
f 1501//4 1502//4 1503//4 1504//4
v 9.5333 -8.8000 -9.5333
v 27.1333 -8.8000 -9.5333
v 27.1333 8.8000 -9.5333
v 9.5333 8.8000 -9.5333
f 1505//5 1506//5 1507//5 1508//5
v 27.1333 -8.8000 -27.1333
v 9.5333 -8.8000 -27.1333
v 9.5333 8.8000 -27.1333
v 27.1333 8.8000 -27.1333
f 1509//6 1510//6 1511//6 1512//6
usemtl mavi
v 26.1333 -7.8000 -27.5000
v 26.1333 7.8000 -27.5000
v 26.1333 7.8000 -27.1333
v 26.1333 -7.8000 -27.1333
f 1513//1 1514//1 1515//1 1516//1
v 10.5333 -7.8000 -27.1333
v 10.5333 7.8000 -27.1333
v 10.5333 7.8000 -27.5000
v 10.5333 -7.8000 -27.5000
f 1517//2 1518//2 1519//2 1520//2
v 10.5333 7.8000 -27.5000
v 10.5333 7.8000 -27.1333
v 26.1333 7.8000 -27.1333
v 26.1333 7.8000 -27.5000
f 1521//3 1522//3 1523//3 1524//3
v 10.5333 -7.8000 -27.1333
v 10.5333 -7.8000 -27.5000
v 26.1333 -7.8000 -27.5000
v 26.1333 -7.8000 -27.1333
f 1525//4 1526//4 1527//4 1528//4
v 10.5333 -7.8000 -27.1333
v 26.1333 -7.8000 -27.1333
v 26.1333 7.8000 -27.1333
v 10.5333 7.8000 -27.1333
f 1529//5 1530//5 1531//5 1532//5
v 26.1333 -7.8000 -27.5000
v 10.5333 -7.8000 -27.5000
v 10.5333 7.8000 -27.5000
v 26.1333 7.8000 -27.5000
f 1533//6 1534//6 1535//6 1536//6
usemtl kirmizi
v 27.5000 -7.8000 -26.1333
v 27.5000 7.8000 -26.1333
v 27.5000 7.8000 -10.5333
v 27.5000 -7.8000 -10.5333
f 1537//1 1538//1 1539//1 1540//1
v 27.1333 -7.8000 -10.5333
v 27.1333 7.8000 -10.5333
v 27.1333 7.8000 -26.1333
v 27.1333 -7.8000 -26.1333
f 1541//2 1542//2 1543//2 1544//2
v 27.1333 7.8000 -26.1333
v 27.1333 7.8000 -10.5333
v 27.5000 7.8000 -10.5333
v 27.5000 7.8000 -26.1333
f 1545//3 1546//3 1547//3 1548//3
v 27.1333 -7.8000 -10.5333
v 27.1333 -7.8000 -26.1333
v 27.5000 -7.8000 -26.1333
v 27.5000 -7.8000 -10.5333
f 1549//4 1550//4 1551//4 1552//4
v 27.1333 -7.8000 -10.5333
v 27.5000 -7.8000 -10.5333
v 27.5000 7.8000 -10.5333
v 27.1333 7.8000 -10.5333
f 1553//5 1554//5 1555//5 1556//5
v 27.5000 -7.8000 -26.1333
v 27.1333 -7.8000 -26.1333
v 27.1333 7.8000 -26.1333
v 27.5000 7.8000 -26.1333
f 1557//6 1558//6 1559//6 1560//6
usemtl siyah
v 27.1333 -8.8000 -8.8000
v 27.1333 8.8000 -8.8000
v 27.1333 8.8000 8.8000
v 27.1333 -8.8000 8.8000
f 1561//1 1562//1 1563//1 1564//1
v 9.5333 -8.8000 8.8000
v 9.5333 8.8000 8.8000
v 9.5333 8.8000 -8.8000
v 9.5333 -8.8000 -8.8000
f 1565//2 1566//2 1567//2 1568//2
v 9.5333 8.8000 -8.8000
v 9.5333 8.8000 8.8000
v 27.1333 8.8000 8.8000
v 27.1333 8.8000 -8.8000
f 1569//3 1570//3 1571//3 1572//3
v 9.5333 -8.8000 8.8000
v 9.5333 -8.8000 -8.8000
v 27.1333 -8.8000 -8.8000
v 27.1333 -8.8000 8.8000
f 1573//4 1574//4 1575//4 1576//4
v 9.5333 -8.8000 8.8000
v 27.1333 -8.8000 8.8000
v 27.1333 8.8000 8.8000
v 9.5333 8.8000 8.8000
f 1577//5 1578//5 1579//5 1580//5
v 27.1333 -8.8000 -8.8000
v 9.5333 -8.8000 -8.8000
v 9.5333 8.8000 -8.8000
v 27.1333 8.8000 -8.8000
f 1581//6 1582//6 1583//6 1584//6
usemtl kirmizi
v 27.5000 -7.8000 -7.8000
v 27.5000 7.8000 -7.8000
v 27.5000 7.8000 7.8000
v 27.5000 -7.8000 7.8000
f 1585//1 1586//1 1587//1 1588//1
v 27.1333 -7.8000 7.8000
v 27.1333 7.8000 7.8000
v 27.1333 7.8000 -7.8000
v 27.1333 -7.8000 -7.8000
f 1589//2 1590//2 1591//2 1592//2
v 27.1333 7.8000 -7.8000
v 27.1333 7.8000 7.8000
v 27.5000 7.8000 7.8000
v 27.5000 7.8000 -7.8000
f 1593//3 1594//3 1595//3 1596//3
v 27.1333 -7.8000 7.8000
v 27.1333 -7.8000 -7.8000
v 27.5000 -7.8000 -7.8000
v 27.5000 -7.8000 7.8000
f 1597//4 1598//4 1599//4 1600//4
v 27.1333 -7.8000 7.8000
v 27.5000 -7.8000 7.8000
v 27.5000 7.8000 7.8000
v 27.1333 7.8000 7.8000
f 1601//5 1602//5 1603//5 1604//5
v 27.5000 -7.8000 -7.8000
v 27.1333 -7.8000 -7.8000
v 27.1333 7.8000 -7.8000
v 27.5000 7.8000 -7.8000
f 1605//6 1606//6 1607//6 1608//6
usemtl siyah
v 27.1333 -8.8000 9.5333
v 27.1333 8.8000 9.5333
v 27.1333 8.8000 27.1333
v 27.1333 -8.8000 27.1333
f 1609//1 1610//1 1611//1 1612//1
v 9.5333 -8.8000 27.1333
v 9.5333 8.8000 27.1333
v 9.5333 8.8000 9.5333
v 9.5333 -8.8000 9.5333
f 1613//2 1614//2 1615//2 1616//2
v 9.5333 8.8000 9.5333
v 9.5333 8.8000 27.1333
v 27.1333 8.8000 27.1333
v 27.1333 8.8000 9.5333
f 1617//3 1618//3 1619//3 1620//3
v 9.5333 -8.8000 27.1333
v 9.5333 -8.8000 9.5333
v 27.1333 -8.8000 9.5333
v 27.1333 -8.8000 27.1333
f 1621//4 1622//4 1623//4 1624//4
v 9.5333 -8.8000 27.1333
v 27.1333 -8.8000 27.1333
v 27.1333 8.8000 27.1333
v 9.5333 8.8000 27.1333
f 1625//5 1626//5 1627//5 1628//5
v 27.1333 -8.8000 9.5333
v 9.5333 -8.8000 9.5333
v 9.5333 8.8000 9.5333
v 27.1333 8.8000 9.5333
f 1629//6 1630//6 1631//6 1632//6
usemtl yesil
v 26.1333 -7.8000 27.1333
v 26.1333 7.8000 27.1333
v 26.1333 7.8000 27.5000
v 26.1333 -7.8000 27.5000
f 1633//1 1634//1 1635//1 1636//1
v 10.5333 -7.8000 27.5000
v 10.5333 7.8000 27.5000
v 10.5333 7.8000 27.1333
v 10.5333 -7.8000 27.1333
f 1637//2 1638//2 1639//2 1640//2
v 10.5333 7.8000 27.1333
v 10.5333 7.8000 27.5000
v 26.1333 7.8000 27.5000
v 26.1333 7.8000 27.1333
f 1641//3 1642//3 1643//3 1644//3
v 10.5333 -7.8000 27.5000
v 10.5333 -7.8000 27.1333
v 26.1333 -7.8000 27.1333
v 26.1333 -7.8000 27.5000
f 1645//4 1646//4 1647//4 1648//4
v 10.5333 -7.8000 27.5000
v 26.1333 -7.8000 27.5000
v 26.1333 7.8000 27.5000
v 10.5333 7.8000 27.5000
f 1649//5 1650//5 1651//5 1652//5
v 26.1333 -7.8000 27.1333
v 10.5333 -7.8000 27.1333
v 10.5333 7.8000 27.1333
v 26.1333 7.8000 27.1333
f 1653//6 1654//6 1655//6 1656//6
usemtl kirmizi
v 27.5000 -7.8000 10.5333
v 27.5000 7.8000 10.5333
v 27.5000 7.8000 26.1333
v 27.5000 -7.8000 26.1333
f 1657//1 1658//1 1659//1 1660//1
v 27.1333 -7.8000 26.1333
v 27.1333 7.8000 26.1333
v 27.1333 7.8000 10.5333
v 27.1333 -7.8000 10.5333
f 1661//2 1662//2 1663//2 1664//2
v 27.1333 7.8000 10.5333
v 27.1333 7.8000 26.1333
v 27.5000 7.8000 26.1333
v 27.5000 7.8000 10.5333
f 1665//3 1666//3 1667//3 1668//3
v 27.1333 -7.8000 26.1333
v 27.1333 -7.8000 10.5333
v 27.5000 -7.8000 10.5333
v 27.5000 -7.8000 26.1333
f 1669//4 1670//4 1671//4 1672//4
v 27.1333 -7.8000 26.1333
v 27.5000 -7.8000 26.1333
v 27.5000 7.8000 26.1333
v 27.1333 7.8000 26.1333
f 1673//5 1674//5 1675//5 1676//5
v 27.5000 -7.8000 10.5333
v 27.1333 -7.8000 10.5333
v 27.1333 7.8000 10.5333
v 27.5000 7.8000 10.5333
f 1677//6 1678//6 1679//6 1680//6
usemtl siyah
v 27.1333 9.5333 -27.1333
v 27.1333 27.1333 -27.1333
v 27.1333 27.1333 -9.5333
v 27.1333 9.5333 -9.5333
f 1681//1 1682//1 1683//1 1684//1
v 9.5333 9.5333 -9.5333
v 9.5333 27.1333 -9.5333
v 9.5333 27.1333 -27.1333
v 9.5333 9.5333 -27.1333
f 1685//2 1686//2 1687//2 1688//2
v 9.5333 27.1333 -27.1333
v 9.5333 27.1333 -9.5333
v 27.1333 27.1333 -9.5333
v 27.1333 27.1333 -27.1333
f 1689//3 1690//3 1691//3 1692//3
v 9.5333 9.5333 -9.5333
v 9.5333 9.5333 -27.1333
v 27.1333 9.5333 -27.1333
v 27.1333 9.5333 -9.5333
f 1693//4 1694//4 1695//4 1696//4
v 9.5333 9.5333 -9.5333
v 27.1333 9.5333 -9.5333
v 27.1333 27.1333 -9.5333
v 9.5333 27.1333 -9.5333
f 1697//5 1698//5 1699//5 1700//5
v 27.1333 9.5333 -27.1333
v 9.5333 9.5333 -27.1333
v 9.5333 27.1333 -27.1333
v 27.1333 27.1333 -27.1333
f 1701//6 1702//6 1703//6 1704//6
usemtl beyaz
v 26.1333 27.1333 -26.1333
v 26.1333 27.5000 -26.1333
v 26.1333 27.5000 -10.5333
v 26.1333 27.1333 -10.5333
f 1705//1 1706//1 1707//1 1708//1
v 10.5333 27.1333 -10.5333
v 10.5333 27.5000 -10.5333
v 10.5333 27.5000 -26.1333
v 10.5333 27.1333 -26.1333
f 1709//2 1710//2 1711//2 1712//2
v 10.5333 27.5000 -26.1333
v 10.5333 27.5000 -10.5333
v 26.1333 27.5000 -10.5333
v 26.1333 27.5000 -26.1333
f 1713//3 1714//3 1715//3 1716//3
v 10.5333 27.1333 -10.5333
v 10.5333 27.1333 -26.1333
v 26.1333 27.1333 -26.1333
v 26.1333 27.1333 -10.5333
f 1717//4 1718//4 1719//4 1720//4
v 10.5333 27.1333 -10.5333
v 26.1333 27.1333 -10.5333
v 26.1333 27.5000 -10.5333
v 10.5333 27.5000 -10.5333
f 1721//5 1722//5 1723//5 1724//5
v 26.1333 27.1333 -26.1333
v 10.5333 27.1333 -26.1333
v 10.5333 27.5000 -26.1333
v 26.1333 27.5000 -26.1333
f 1725//6 1726//6 1727//6 1728//6
usemtl mavi
v 26.1333 10.5333 -27.5000
v 26.1333 26.1333 -27.5000
v 26.1333 26.1333 -27.1333
v 26.1333 10.5333 -27.1333
f 1729//1 1730//1 1731//1 1732//1
v 10.5333 10.5333 -27.1333
v 10.5333 26.1333 -27.1333
v 10.5333 26.1333 -27.5000
v 10.5333 10.5333 -27.5000
f 1733//2 1734//2 1735//2 1736//2
v 10.5333 26.1333 -27.5000
v 10.5333 26.1333 -27.1333
v 26.1333 26.1333 -27.1333
v 26.1333 26.1333 -27.5000
f 1737//3 1738//3 1739//3 1740//3
v 10.5333 10.5333 -27.1333
v 10.5333 10.5333 -27.5000
v 26.1333 10.5333 -27.5000
v 26.1333 10.5333 -27.1333
f 1741//4 1742//4 1743//4 1744//4
v 10.5333 10.5333 -27.1333
v 26.1333 10.5333 -27.1333
v 26.1333 26.1333 -27.1333
v 10.5333 26.1333 -27.1333
f 1745//5 1746//5 1747//5 1748//5
v 26.1333 10.5333 -27.5000
v 10.5333 10.5333 -27.5000
v 10.5333 26.1333 -27.5000
v 26.1333 26.1333 -27.5000
f 1749//6 1750//6 1751//6 1752//6
usemtl kirmizi
v 27.5000 10.5333 -26.1333
v 27.5000 26.1333 -26.1333
v 27.5000 26.1333 -10.5333
v 27.5000 10.5333 -10.5333
f 1753//1 1754//1 1755//1 1756//1
v 27.1333 10.5333 -10.5333
v 27.1333 26.1333 -10.5333
v 27.1333 26.1333 -26.1333
v 27.1333 10.5333 -26.1333
f 1757//2 1758//2 1759//2 1760//2
v 27.1333 26.1333 -26.1333
v 27.1333 26.1333 -10.5333
v 27.5000 26.1333 -10.5333
v 27.5000 26.1333 -26.1333
f 1761//3 1762//3 1763//3 1764//3
v 27.1333 10.5333 -10.5333
v 27.1333 10.5333 -26.1333
v 27.5000 10.5333 -26.1333
v 27.5000 10.5333 -10.5333
f 1765//4 1766//4 1767//4 1768//4
v 27.1333 10.5333 -10.5333
v 27.5000 10.5333 -10.5333
v 27.5000 26.1333 -10.5333
v 27.1333 26.1333 -10.5333
f 1769//5 1770//5 1771//5 1772//5
v 27.5000 10.5333 -26.1333
v 27.1333 10.5333 -26.1333
v 27.1333 26.1333 -26.1333
v 27.5000 26.1333 -26.1333
f 1773//6 1774//6 1775//6 1776//6
usemtl siyah
v 27.1333 9.5333 -8.8000
v 27.1333 27.1333 -8.8000
v 27.1333 27.1333 8.8000
v 27.1333 9.5333 8.8000
f 1777//1 1778//1 1779//1 1780//1
v 9.5333 9.5333 8.8000
v 9.5333 27.1333 8.8000
v 9.5333 27.1333 -8.8000
v 9.5333 9.5333 -8.8000
f 1781//2 1782//2 1783//2 1784//2
v 9.5333 27.1333 -8.8000
v 9.5333 27.1333 8.8000
v 27.1333 27.1333 8.8000
v 27.1333 27.1333 -8.8000
f 1785//3 1786//3 1787//3 1788//3
v 9.5333 9.5333 8.8000
v 9.5333 9.5333 -8.8000
v 27.1333 9.5333 -8.8000
v 27.1333 9.5333 8.8000
f 1789//4 1790//4 1791//4 1792//4
v 9.5333 9.5333 8.8000
v 27.1333 9.5333 8.8000
v 27.1333 27.1333 8.8000
v 9.5333 27.1333 8.8000
f 1793//5 1794//5 1795//5 1796//5
v 27.1333 9.5333 -8.8000
v 9.5333 9.5333 -8.8000
v 9.5333 27.1333 -8.8000
v 27.1333 27.1333 -8.8000
f 1797//6 1798//6 1799//6 1800//6
usemtl beyaz
v 26.1333 27.1333 -7.8000
v 26.1333 27.5000 -7.8000
v 26.1333 27.5000 7.8000
v 26.1333 27.1333 7.8000
f 1801//1 1802//1 1803//1 1804//1
v 10.5333 27.1333 7.8000
v 10.5333 27.5000 7.8000
v 10.5333 27.5000 -7.8000
v 10.5333 27.1333 -7.8000
f 1805//2 1806//2 1807//2 1808//2
v 10.5333 27.5000 -7.8000
v 10.5333 27.5000 7.8000
v 26.1333 27.5000 7.8000
v 26.1333 27.5000 -7.8000
f 1809//3 1810//3 1811//3 1812//3
v 10.5333 27.1333 7.8000
v 10.5333 27.1333 -7.8000
v 26.1333 27.1333 -7.8000
v 26.1333 27.1333 7.8000
f 1813//4 1814//4 1815//4 1816//4
v 10.5333 27.1333 7.8000
v 26.1333 27.1333 7.8000
v 26.1333 27.5000 7.8000
v 10.5333 27.5000 7.8000
f 1817//5 1818//5 1819//5 1820//5
v 26.1333 27.1333 -7.8000
v 10.5333 27.1333 -7.8000
v 10.5333 27.5000 -7.8000
v 26.1333 27.5000 -7.8000
f 1821//6 1822//6 1823//6 1824//6
usemtl kirmizi
v 27.5000 10.5333 -7.8000
v 27.5000 26.1333 -7.8000
v 27.5000 26.1333 7.8000
v 27.5000 10.5333 7.8000
f 1825//1 1826//1 1827//1 1828//1
v 27.1333 10.5333 7.8000
v 27.1333 26.1333 7.8000
v 27.1333 26.1333 -7.8000
v 27.1333 10.5333 -7.8000
f 1829//2 1830//2 1831//2 1832//2
v 27.1333 26.1333 -7.8000
v 27.1333 26.1333 7.8000
v 27.5000 26.1333 7.8000
v 27.5000 26.1333 -7.8000
f 1833//3 1834//3 1835//3 1836//3
v 27.1333 10.5333 7.8000
v 27.1333 10.5333 -7.8000
v 27.5000 10.5333 -7.8000
v 27.5000 10.5333 7.8000
f 1837//4 1838//4 1839//4 1840//4
v 27.1333 10.5333 7.8000
v 27.5000 10.5333 7.8000
v 27.5000 26.1333 7.8000
v 27.1333 26.1333 7.8000
f 1841//5 1842//5 1843//5 1844//5
v 27.5000 10.5333 -7.8000
v 27.1333 10.5333 -7.8000
v 27.1333 26.1333 -7.8000
v 27.5000 26.1333 -7.8000
f 1845//6 1846//6 1847//6 1848//6
usemtl siyah
v 27.1333 9.5333 9.5333
v 27.1333 27.1333 9.5333
v 27.1333 27.1333 27.1333
v 27.1333 9.5333 27.1333
f 1849//1 1850//1 1851//1 1852//1
v 9.5333 9.5333 27.1333
v 9.5333 27.1333 27.1333
v 9.5333 27.1333 9.5333
v 9.5333 9.5333 9.5333
f 1853//2 1854//2 1855//2 1856//2
v 9.5333 27.1333 9.5333
v 9.5333 27.1333 27.1333
v 27.1333 27.1333 27.1333
v 27.1333 27.1333 9.5333
f 1857//3 1858//3 1859//3 1860//3
v 9.5333 9.5333 27.1333
v 9.5333 9.5333 9.5333
v 27.1333 9.5333 9.5333
v 27.1333 9.5333 27.1333
f 1861//4 1862//4 1863//4 1864//4
v 9.5333 9.5333 27.1333
v 27.1333 9.5333 27.1333
v 27.1333 27.1333 27.1333
v 9.5333 27.1333 27.1333
f 1865//5 1866//5 1867//5 1868//5
v 27.1333 9.5333 9.5333
v 9.5333 9.5333 9.5333
v 9.5333 27.1333 9.5333
v 27.1333 27.1333 9.5333
f 1869//6 1870//6 1871//6 1872//6
usemtl beyaz
v 26.1333 27.1333 10.5333
v 26.1333 27.5000 10.5333
v 26.1333 27.5000 26.1333
v 26.1333 27.1333 26.1333
f 1873//1 1874//1 1875//1 1876//1
v 10.5333 27.1333 26.1333
v 10.5333 27.5000 26.1333
v 10.5333 27.5000 10.5333
v 10.5333 27.1333 10.5333
f 1877//2 1878//2 1879//2 1880//2
v 10.5333 27.5000 10.5333
v 10.5333 27.5000 26.1333
v 26.1333 27.5000 26.1333
v 26.1333 27.5000 10.5333
f 1881//3 1882//3 1883//3 1884//3
v 10.5333 27.1333 26.1333
v 10.5333 27.1333 10.5333
v 26.1333 27.1333 10.5333
v 26.1333 27.1333 26.1333
f 1885//4 1886//4 1887//4 1888//4
v 10.5333 27.1333 26.1333
v 26.1333 27.1333 26.1333
v 26.1333 27.5000 26.1333
v 10.5333 27.5000 26.1333
f 1889//5 1890//5 1891//5 1892//5
v 26.1333 27.1333 10.5333
v 10.5333 27.1333 10.5333
v 10.5333 27.5000 10.5333
v 26.1333 27.5000 10.5333
f 1893//6 1894//6 1895//6 1896//6
usemtl yesil
v 26.1333 10.5333 27.1333
v 26.1333 26.1333 27.1333
v 26.1333 26.1333 27.5000
v 26.1333 10.5333 27.5000
f 1897//1 1898//1 1899//1 1900//1
v 10.5333 10.5333 27.5000
v 10.5333 26.1333 27.5000
v 10.5333 26.1333 27.1333
v 10.5333 10.5333 27.1333
f 1901//2 1902//2 1903//2 1904//2
v 10.5333 26.1333 27.1333
v 10.5333 26.1333 27.5000
v 26.1333 26.1333 27.5000
v 26.1333 26.1333 27.1333
f 1905//3 1906//3 1907//3 1908//3
v 10.5333 10.5333 27.5000
v 10.5333 10.5333 27.1333
v 26.1333 10.5333 27.1333
v 26.1333 10.5333 27.5000
f 1909//4 1910//4 1911//4 1912//4
v 10.5333 10.5333 27.5000
v 26.1333 10.5333 27.5000
v 26.1333 26.1333 27.5000
v 10.5333 26.1333 27.5000
f 1913//5 1914//5 1915//5 1916//5
v 26.1333 10.5333 27.1333
v 10.5333 10.5333 27.1333
v 10.5333 26.1333 27.1333
v 26.1333 26.1333 27.1333
f 1917//6 1918//6 1919//6 1920//6
usemtl kirmizi
v 27.5000 10.5333 10.5333
v 27.5000 26.1333 10.5333
v 27.5000 26.1333 26.1333
v 27.5000 10.5333 26.1333
f 1921//1 1922//1 1923//1 1924//1
v 27.1333 10.5333 26.1333
v 27.1333 26.1333 26.1333
v 27.1333 26.1333 10.5333
v 27.1333 10.5333 10.5333
f 1925//2 1926//2 1927//2 1928//2
v 27.1333 26.1333 10.5333
v 27.1333 26.1333 26.1333
v 27.5000 26.1333 26.1333
v 27.5000 26.1333 10.5333
f 1929//3 1930//3 1931//3 1932//3
v 27.1333 10.5333 26.1333
v 27.1333 10.5333 10.5333
v 27.5000 10.5333 10.5333
v 27.5000 10.5333 26.1333
f 1933//4 1934//4 1935//4 1936//4
v 27.1333 10.5333 26.1333
v 27.5000 10.5333 26.1333
v 27.5000 26.1333 26.1333
v 27.1333 26.1333 26.1333
f 1937//5 1938//5 1939//5 1940//5
v 27.5000 10.5333 10.5333
v 27.1333 10.5333 10.5333
v 27.1333 26.1333 10.5333
v 27.5000 26.1333 10.5333
f 1941//6 1942//6 1943//6 1944//6
